<svg width="153.000000" height="166.000000" viewBox="0 0 153 166" fill="none" xmlns="http://www.w3.org/2000/svg" xmlns:xlink="http://www.w3.org/1999/xlink">
	<desc>
			Created with Pixso.
	</desc>
	<defs/>
	<path id="+" d="M11.55 11.61L7.19 11.61L7.19 7.04L5.19 7.04L5.19 11.61L0.83 11.61L0.83 13.49L5.19 13.49L5.19 18.43L7.19 18.43L7.19 13.49L11.55 13.49L11.55 11.61Z" fill="#FF7152" fill-opacity="1.000000" fill-rule="evenodd"/>
	<path id="+" d="M7.19 11.61L11.55 11.61L11.55 13.49L7.19 13.49L7.19 18.43L5.19 18.43L5.19 13.49L0.83 13.49L0.83 11.61L5.19 11.61L5.19 7.04L7.19 7.04L7.19 11.61Z" stroke="#707070" stroke-opacity="0" stroke-width="1.000000"/>
	<path id="+" d="M11.55 46.61L7.19 46.61L7.19 42.04L5.19 42.04L5.19 46.61L0.83 46.61L0.83 48.49L5.19 48.49L5.19 53.43L7.19 53.43L7.19 48.49L11.55 48.49L11.55 46.61Z" fill="#E5E5E5" fill-opacity="1.000000" fill-rule="evenodd"/>
	<path id="+" d="M7.19 46.61L11.55 46.61L11.55 48.49L7.19 48.49L7.19 53.43L5.19 53.43L5.19 48.49L0.83 48.49L0.83 46.61L5.19 46.61L5.19 42.04L7.19 42.04L7.19 46.61Z" stroke="#707070" stroke-opacity="0" stroke-width="1.000000"/>
	<path id="+" d="M11.55 69.61L7.19 69.61L7.19 65.04L5.19 65.04L5.19 69.61L0.83 69.61L0.83 71.49L5.19 71.49L5.19 76.43L7.19 76.43L7.19 71.49L11.55 71.49L11.55 69.61Z" fill="#E5E5E5" fill-opacity="1.000000" fill-rule="evenodd"/>
	<path id="+" d="M7.19 69.61L11.55 69.61L11.55 71.49L7.19 71.49L7.19 76.43L5.19 76.43L5.19 71.49L0.83 71.49L0.83 69.61L5.19 69.61L5.19 65.04L7.19 65.04L7.19 69.61Z" stroke="#707070" stroke-opacity="0" stroke-width="1.000000"/>
	<path id="+" d="M46.55 11.61L42.19 11.61L42.19 7.04L40.19 7.04L40.19 11.61L35.83 11.61L35.83 13.49L40.19 13.49L40.19 18.43L42.19 18.43L42.19 13.49L46.55 13.49L46.55 11.61Z" fill="#E5E5E5" fill-opacity="1.000000" fill-rule="evenodd"/>
	<path id="+" d="M42.19 11.61L46.55 11.61L46.55 13.49L42.19 13.49L42.19 18.43L40.19 18.43L40.19 13.49L35.83 13.49L35.83 11.61L40.19 11.61L40.19 7.04L42.19 7.04L42.19 11.61Z" stroke="#707070" stroke-opacity="0" stroke-width="1.000000"/>
	<path id="+" d="M46.55 46.61L42.19 46.61L42.19 42.04L40.19 42.04L40.19 46.61L35.83 46.61L35.83 48.49L40.19 48.49L40.19 53.43L42.19 53.43L42.19 48.49L46.55 48.49L46.55 46.61Z" fill="#E5E5E5" fill-opacity="1.000000" fill-rule="evenodd"/>
	<path id="+" d="M42.19 46.61L46.55 46.61L46.55 48.49L42.19 48.49L42.19 53.43L40.19 53.43L40.19 48.49L35.83 48.49L35.83 46.61L40.19 46.61L40.19 42.04L42.19 42.04L42.19 46.61Z" stroke="#707070" stroke-opacity="0" stroke-width="1.000000"/>
	<path id="+" d="M46.55 69.61L42.19 69.61L42.19 65.04L40.19 65.04L40.19 69.61L35.83 69.61L35.83 71.49L40.19 71.49L40.19 76.43L42.19 76.43L42.19 71.49L46.55 71.49L46.55 69.61Z" fill="#E5E5E5" fill-opacity="1.000000" fill-rule="evenodd"/>
	<path id="+" d="M42.19 69.61L46.55 69.61L46.55 71.49L42.19 71.49L42.19 76.43L40.19 76.43L40.19 71.49L35.83 71.49L35.83 69.61L40.19 69.61L40.19 65.04L42.19 65.04L42.19 69.61Z" stroke="#707070" stroke-opacity="0" stroke-width="1.000000"/>
	<path id="+" d="M46.55 116.61L42.19 116.61L42.19 112.04L40.19 112.04L40.19 116.61L35.83 116.61L35.83 118.49L40.19 118.49L40.19 123.43L42.19 123.43L42.19 118.49L46.55 118.49L46.55 116.61Z" fill="#E5E5E5" fill-opacity="1.000000" fill-rule="evenodd"/>
	<path id="+" d="M42.19 116.61L46.55 116.61L46.55 118.49L42.19 118.49L42.19 123.43L40.19 123.43L40.19 118.49L35.83 118.49L35.83 116.61L40.19 116.61L40.19 112.04L42.19 112.04L42.19 116.61Z" stroke="#707070" stroke-opacity="0" stroke-width="1.000000"/>
	<path id="+" d="M81.55 11.61L77.19 11.61L77.19 7.04L75.19 7.04L75.19 11.61L70.83 11.61L70.83 13.49L75.19 13.49L75.19 18.43L77.19 18.43L77.19 13.49L81.55 13.49L81.55 11.61Z" fill="#E5E5E5" fill-opacity="1.000000" fill-rule="evenodd"/>
	<path id="+" d="M77.19 11.61L81.55 11.61L81.55 13.49L77.19 13.49L77.19 18.43L75.19 18.43L75.19 13.49L70.83 13.49L70.83 11.61L75.19 11.61L75.19 7.04L77.19 7.04L77.19 11.61Z" stroke="#707070" stroke-opacity="0" stroke-width="1.000000"/>
	<path id="+" d="M81.55 46.61L77.19 46.61L77.19 42.04L75.19 42.04L75.19 46.61L70.83 46.61L70.83 48.49L75.19 48.49L75.19 53.43L77.19 53.43L77.19 48.49L81.55 48.49L81.55 46.61Z" fill="#E5E5E5" fill-opacity="1.000000" fill-rule="evenodd"/>
	<path id="+" d="M77.19 46.61L81.55 46.61L81.55 48.49L77.19 48.49L77.19 53.43L75.19 53.43L75.19 48.49L70.83 48.49L70.83 46.61L75.19 46.61L75.19 42.04L77.19 42.04L77.19 46.61Z" stroke="#707070" stroke-opacity="0" stroke-width="1.000000"/>
	<path id="+" d="M81.55 69.61L77.19 69.61L77.19 65.04L75.19 65.04L75.19 69.61L70.83 69.61L70.83 71.49L75.19 71.49L75.19 76.43L77.19 76.43L77.19 71.49L81.55 71.49L81.55 69.61Z" fill="#6246E5" fill-opacity="1.000000" fill-rule="evenodd"/>
	<path id="+" d="M77.19 69.61L81.55 69.61L81.55 71.49L77.19 71.49L77.19 76.43L75.19 76.43L75.19 71.49L70.83 71.49L70.83 69.61L75.19 69.61L75.19 65.04L77.19 65.04L77.19 69.61Z" stroke="#707070" stroke-opacity="0" stroke-width="1.000000"/>
	<path id="+" d="M81.55 116.61L77.19 116.61L77.19 112.04L75.19 112.04L75.19 116.61L70.83 116.61L70.83 118.49L75.19 118.49L75.19 123.43L77.19 123.43L77.19 118.49L81.55 118.49L81.55 116.61Z" fill="#E5E5E5" fill-opacity="1.000000" fill-rule="evenodd"/>
	<path id="+" d="M77.19 116.61L81.55 116.61L81.55 118.49L77.19 118.49L77.19 123.43L75.19 123.43L75.19 118.49L70.83 118.49L70.83 116.61L75.19 116.61L75.19 112.04L77.19 112.04L77.19 116.61Z" stroke="#707070" stroke-opacity="0" stroke-width="1.000000"/>
	<path id="+" d="M81.55 151.61L77.19 151.61L77.19 147.04L75.19 147.04L75.19 151.61L70.83 151.61L70.83 153.49L75.19 153.49L75.19 158.43L77.19 158.43L77.19 153.49L81.55 153.49L81.55 151.61Z" fill="#E5E5E5" fill-opacity="1.000000" fill-rule="evenodd"/>
	<path id="+" d="M77.19 151.61L81.55 151.61L81.55 153.49L77.19 153.49L77.19 158.43L75.19 158.43L75.19 153.49L70.83 153.49L70.83 151.61L75.19 151.61L75.19 147.04L77.19 147.04L77.19 151.61Z" stroke="#707070" stroke-opacity="0" stroke-width="1.000000"/>
	<path id="+" d="M116.55 11.61L112.19 11.61L112.19 7.04L110.19 7.04L110.19 11.61L105.83 11.61L105.83 13.49L110.19 13.49L110.19 18.43L112.19 18.43L112.19 13.49L116.55 13.49L116.55 11.61Z" fill="#E5E5E5" fill-opacity="1.000000" fill-rule="evenodd"/>
	<path id="+" d="M112.19 11.61L116.55 11.61L116.55 13.49L112.19 13.49L112.19 18.43L110.19 18.43L110.19 13.49L105.83 13.49L105.83 11.61L110.19 11.61L110.19 7.04L112.19 7.04L112.19 11.61Z" stroke="#707070" stroke-opacity="0" stroke-width="1.000000"/>
	<path id="+" d="M116.55 46.61L112.19 46.61L112.19 42.04L110.19 42.04L110.19 46.61L105.83 46.61L105.83 48.49L110.19 48.49L110.19 53.43L112.19 53.43L112.19 48.49L116.55 48.49L116.55 46.61Z" fill="#E5E5E5" fill-opacity="1.000000" fill-rule="evenodd"/>
	<path id="+" d="M112.19 46.61L116.55 46.61L116.55 48.49L112.19 48.49L112.19 53.43L110.19 53.43L110.19 48.49L105.83 48.49L105.83 46.61L110.19 46.61L110.19 42.04L112.19 42.04L112.19 46.61Z" stroke="#707070" stroke-opacity="0" stroke-width="1.000000"/>
	<path id="+" d="M116.55 69.61L112.19 69.61L112.19 65.04L110.19 65.04L110.19 69.61L105.83 69.61L105.83 71.49L110.19 71.49L110.19 76.43L112.19 76.43L112.19 71.49L116.55 71.49L116.55 69.61Z" fill="#E5E5E5" fill-opacity="1.000000" fill-rule="evenodd"/>
	<path id="+" d="M112.19 69.61L116.55 69.61L116.55 71.49L112.19 71.49L112.19 76.43L110.19 76.43L110.19 71.49L105.83 71.49L105.83 69.61L110.19 69.61L110.19 65.04L112.19 65.04L112.19 69.61Z" stroke="#707070" stroke-opacity="0" stroke-width="1.000000"/>
	<path id="+" d="M116.55 116.61L112.19 116.61L112.19 112.04L110.19 112.04L110.19 116.61L105.83 116.61L105.83 118.49L110.19 118.49L110.19 123.43L112.19 123.43L112.19 118.49L116.55 118.49L116.55 116.61Z" fill="#E5E5E5" fill-opacity="1.000000" fill-rule="evenodd"/>
	<path id="+" d="M112.19 116.61L116.55 116.61L116.55 118.49L112.19 118.49L112.19 123.43L110.19 123.43L110.19 118.49L105.83 118.49L105.83 116.61L110.19 116.61L110.19 112.04L112.19 112.04L112.19 116.61Z" stroke="#707070" stroke-opacity="0" stroke-width="1.000000"/>
	<path id="+" d="M116.55 151.61L112.19 151.61L112.19 147.04L110.19 147.04L110.19 151.61L105.83 151.61L105.83 153.49L110.19 153.49L110.19 158.43L112.19 158.43L112.19 153.49L116.55 153.49L116.55 151.61Z" fill="#E5E5E5" fill-opacity="1.000000" fill-rule="evenodd"/>
	<path id="+" d="M112.19 151.61L116.55 151.61L116.55 153.49L112.19 153.49L112.19 158.43L110.19 158.43L110.19 153.49L105.83 153.49L105.83 151.61L110.19 151.61L110.19 147.04L112.19 147.04L112.19 151.61Z" stroke="#707070" stroke-opacity="0" stroke-width="1.000000"/>
	<path id="+" d="M151.55 11.61L147.19 11.61L147.19 7.04L145.19 7.04L145.19 11.61L140.83 11.61L140.83 13.49L145.19 13.49L145.19 18.43L147.19 18.43L147.19 13.49L151.55 13.49L151.55 11.61Z" fill="#E5E5E5" fill-opacity="1.000000" fill-rule="evenodd"/>
	<path id="+" d="M147.19 11.61L151.55 11.61L151.55 13.49L147.19 13.49L147.19 18.43L145.19 18.43L145.19 13.49L140.83 13.49L140.83 11.61L145.19 11.61L145.19 7.04L147.19 7.04L147.19 11.61Z" stroke="#707070" stroke-opacity="0" stroke-width="1.000000"/>
	<path id="+" d="M151.55 46.61L147.19 46.61L147.19 42.04L145.19 42.04L145.19 46.61L140.83 46.61L140.83 48.49L145.19 48.49L145.19 53.43L147.19 53.43L147.19 48.49L151.55 48.49L151.55 46.61Z" fill="#E5E5E5" fill-opacity="1.000000" fill-rule="evenodd"/>
	<path id="+" d="M147.19 46.61L151.55 46.61L151.55 48.49L147.19 48.49L147.19 53.43L145.19 53.43L145.19 48.49L140.83 48.49L140.83 46.61L145.19 46.61L145.19 42.04L147.19 42.04L147.19 46.61Z" stroke="#707070" stroke-opacity="0" stroke-width="1.000000"/>
	<path id="+" d="M151.55 69.61L147.19 69.61L147.19 65.04L145.19 65.04L145.19 69.61L140.83 69.61L140.83 71.49L145.19 71.49L145.19 76.43L147.19 76.43L147.19 71.49L151.55 71.49L151.55 69.61Z" fill="#E5E5E5" fill-opacity="1.000000" fill-rule="evenodd"/>
	<path id="+" d="M147.19 69.61L151.55 69.61L151.55 71.49L147.19 71.49L147.19 76.43L145.19 76.43L145.19 71.49L140.83 71.49L140.83 69.61L145.19 69.61L145.19 65.04L147.19 65.04L147.19 69.61Z" stroke="#707070" stroke-opacity="0" stroke-width="1.000000"/>
	<path id="+" d="M151.55 116.61L147.19 116.61L147.19 112.04L145.19 112.04L145.19 116.61L140.83 116.61L140.83 118.49L145.19 118.49L145.19 123.43L147.19 123.43L147.19 118.49L151.55 118.49L151.55 116.61Z" fill="#E5E5E5" fill-opacity="1.000000" fill-rule="evenodd"/>
	<path id="+" d="M147.19 116.61L151.55 116.61L151.55 118.49L147.19 118.49L147.19 123.43L145.19 123.43L145.19 118.49L140.83 118.49L140.83 116.61L145.19 116.61L145.19 112.04L147.19 112.04L147.19 116.61Z" stroke="#707070" stroke-opacity="0" stroke-width="1.000000"/>
	<path id="+" d="M151.55 151.61L147.19 151.61L147.19 147.04L145.19 147.04L145.19 151.61L140.83 151.61L140.83 153.49L145.19 153.49L145.19 158.43L147.19 158.43L147.19 153.49L151.55 153.49L151.55 151.61Z" fill="#E5E5E5" fill-opacity="1.000000" fill-rule="evenodd"/>
	<path id="+" d="M147.19 151.61L151.55 151.61L151.55 153.49L147.19 153.49L147.19 158.43L145.19 158.43L145.19 153.49L140.83 153.49L140.83 151.61L145.19 151.61L145.19 147.04L147.19 147.04L147.19 151.61Z" stroke="#707070" stroke-opacity="0" stroke-width="1.000000"/>
</svg>
