<svg width="50.000000" height="49.000000" viewBox="0 0 50 49" fill="none" xmlns="http://www.w3.org/2000/svg" xmlns:xlink="http://www.w3.org/1999/xlink">
	<desc>
			Created with Pixso.
	</desc>
	<defs/>
	<path id="Rectangle 159" d="M5 0L40 0C45.52 0 50 4.47 50 10L50 44C50 46.76 47.76 49 45 49L18 49C8.05 49 0 40.94 0 31L0 5C0 2.23 2.23 0 5 0Z" fill="#FFF1DA" fill-opacity="1.000000" fill-rule="evenodd"/>
	<path id="Rectangle 159" d="M40 0C45.52 0 50 4.47 50 10L50 44C50 46.76 47.76 49 45 49L18 49C8.05 49 0 40.94 0 31L0 5C0 2.23 2.23 0 5 0L40 0ZM40 1C44.97 1 49 5.02 49 10L49 44C49 46.2 47.2 48 45 48L18 48C8.61 48 1 40.38 1 31L1 5C1 2.79 2.79 1 5 1L40 1Z" fill="#707070" fill-opacity="0" fill-rule="evenodd"/>
</svg>
