<svg width="50.000000" height="50.000000" viewBox="0 0 50 50" fill="none" xmlns="http://www.w3.org/2000/svg" xmlns:xlink="http://www.w3.org/1999/xlink">
	<desc>
			Created with Pixso.
	</desc>
	<defs/>
	<path id="Vector" d="M50 27.84L50 22.15C50 21.03 49.09 20.12 47.97 20.12L45.79 20.12C44.92 20.12 44.15 19.57 43.88 18.74C43.57 17.82 43.2 16.93 42.77 16.07C42.38 15.29 42.53 14.35 43.15 13.73L44.69 12.19C45.48 11.4 45.48 10.12 44.69 9.33L40.66 5.3C39.87 4.51 38.59 4.51 37.8 5.3L36.26 6.84C35.64 7.46 34.7 7.61 33.92 7.22C33.06 6.79 32.17 6.42 31.25 6.11C30.42 5.84 29.87 5.07 29.87 4.2L29.87 2.02C29.87 0.9 28.96 0 27.84 0L22.15 0C21.03 0 20.12 0.9 20.12 2.02L20.12 4.2C20.12 5.07 19.57 5.84 18.74 6.11C17.82 6.42 16.93 6.79 16.07 7.22C15.29 7.61 14.35 7.46 13.73 6.84L12.19 5.3C11.4 4.51 10.12 4.51 9.33 5.3L5.3 9.33C4.51 10.12 4.51 11.4 5.3 12.19L6.84 13.73C7.46 14.35 7.61 15.29 7.22 16.07C6.79 16.93 6.42 17.82 6.11 18.74C5.92 19.32 5.48 19.77 4.93 19.99C4.7 20.08 4.55 20.23 4.3 20.23L2.12 20.23C1 20.23 0.1 21.13 0.1 22.25L0.1 27.74C0.1 28.86 1 29.76 2.12 29.76L4.3 29.76C5.17 29.76 5.94 30.42 6.21 31.25C6.52 32.17 6.89 33.06 7.32 33.92C7.71 34.7 7.56 35.64 6.95 36.26L5.5 37.8C4.71 38.59 4.71 39.87 5.5 40.66L9.33 44.49C10.12 45.28 11.4 45.28 12.19 44.49L13.73 42.94C14.35 42.33 15.29 42.18 16.07 42.57C16.93 43 18.02 43.47 18.94 43.78C19.77 44.05 20.33 44.82 20.33 45.69L20.33 47.87C20.33 48.99 21.23 49.89 22.35 49.89L27.74 49.89C28.86 49.89 29.76 48.99 29.76 47.87L29.76 45.69C29.76 45.44 29.91 45.29 30 45.06C30.22 44.51 30.67 44.07 31.25 43.88C32.17 43.57 33.06 43.2 33.92 42.77C34.7 42.38 35.64 42.53 36.26 43.15L37.8 44.69C38.59 45.48 39.87 45.48 40.66 44.69L44.69 40.66C45.48 39.87 45.48 38.59 44.69 37.8L43.15 36.26C42.53 35.64 42.38 34.7 42.77 33.92C43.2 33.06 43.57 32.17 43.88 31.25C44.15 30.42 44.92 29.87 45.79 29.87L47.97 29.87C49.09 29.87 50 28.96 50 27.84Z" fill="#B6C4CF" fill-opacity="1.000000" fill-rule="nonzero"/>
	<path id="Vector" d="" fill="#707070" fill-opacity="0" fill-rule="evenodd"/>
	<path id="Vector" d="M30 45.06C29.91 45.29 29.87 45.54 29.87 45.79L29.87 47.97C29.87 49.09 28.96 50 27.84 50L22.15 50C21.03 50 20.12 49.09 20.12 47.97L20.12 45.79C20.12 44.92 19.57 44.15 18.74 43.88C17.82 43.57 16.93 43.2 16.07 42.77C15.29 42.38 14.35 42.53 13.73 43.14L12.19 44.69C11.4 45.48 10.12 45.48 9.33 44.69L5.3 40.66C4.51 39.87 4.51 38.59 5.3 37.8L6.85 36.26C7.46 35.64 7.61 34.7 7.22 33.92C6.79 33.06 6.42 32.17 6.11 31.25C5.84 30.42 5.07 29.87 4.2 29.87L2.02 29.87C0.9 29.87 0 28.96 0 27.84L0 22.15C0 21.03 0.9 20.12 2.02 20.12L4.2 20.12C4.45 20.12 4.7 20.08 4.93 19.99C4.92 20.11 4.92 20.24 4.92 20.37C4.92 34.01 15.98 45.07 29.62 45.07C29.75 45.07 29.88 45.07 30 45.06Z" fill="#9FACBA" fill-opacity="1.000000" fill-rule="nonzero"/>
	<path id="Vector" d="" fill="#707070" fill-opacity="0" fill-rule="evenodd"/>
	<path id="Vector" d="M41.59 25C41.59 34.16 34.16 41.59 25 41.59C15.83 41.59 8.4 34.16 8.4 25C8.4 15.83 15.83 8.4 25 8.4C34.16 8.4 41.59 15.83 41.59 25Z" fill="#9FACBA" fill-opacity="1.000000" fill-rule="nonzero"/>
	<path id="Vector" d="" fill="#707070" fill-opacity="0" fill-rule="evenodd"/>
	<path id="Vector" d="M38.07 25C38.07 32.22 32.22 38.07 25 38.07C17.77 38.07 11.92 32.22 11.92 25C11.92 17.77 17.77 11.92 25 11.92C32.22 11.92 38.07 17.77 38.07 25Z" fill="#F8F7F7" fill-opacity="1.000000" fill-rule="nonzero"/>
	<path id="Vector" d="" fill="#707070" fill-opacity="0" fill-rule="evenodd"/>
</svg>
