<svg width="385.000000" height="12.000000" viewBox="0 0 385 12" fill="none" xmlns="http://www.w3.org/2000/svg" xmlns:xlink="http://www.w3.org/1999/xlink">
	<desc>
			Created with Pixso.
	</desc>
	<defs/>
	<mask id="mask1_444" mask-type="alpha" maskUnits="userSpaceOnUse" x="0.000000" y="0.000000" width="385.000000" height="12.000000">
		<rect id="Rectangle 36" width="385.000000" height="12.000000" fill="#C4C4C4" fill-opacity="1.000000"/>
		<rect id="Rectangle 36" x="0.500000" y="0.500000" width="384.000000" height="11.000000" stroke="#707070" stroke-opacity="0" stroke-width="1.000000"/>
	</mask>
	<g mask="url(#mask1_444)">
		<path id="Vector" d="M51.2 0.33L52.03 0.13L50.45 -0.1L51.23 -0.3C52 -0.31 52.98 -0.05 53.53 -0.21C53.61 -0.36 52.77 -0.39 52.57 -0.5C52.38 -0.62 52.24 -0.73 52.13 -0.85C52.55 -0.85 53.01 -0.84 53.48 -0.79C54.11 -0.72 54.74 -0.69 55.29 -0.71C56.4 -0.71 57.48 -0.75 58.7 -0.77L58.31 -1.11L59.87 -1.06C60.04 -1.04 60.24 -1.09 60.4 -1.06C61.74 -0.8 62.32 -0.97 62.98 -1.11C63.12 -1.14 63.28 -1.17 63.47 -1.19C65.27 -1.16 66.88 -0.8 68.49 -0.63C68.8 -0.59 69.09 -0.53 69.34 -0.45C69.9 -0.32 70.52 -0.21 71.16 -0.14C71.79 -0.07 72.41 -0.04 72.96 -0.06C74.18 -0.08 75.55 -0.01 76.94 0.15C77.35 0.2 77.76 0.23 78.15 0.24C78.54 0.25 78.9 0.24 79.2 0.2L80.13 0.38C80.55 0.29 81.07 0.24 81.67 0.22C82.27 0.2 82.94 0.23 83.62 0.28C84.35 0.35 85.1 0.38 85.86 0.45C87.43 0.58 88.96 0.64 90.4 0.65C92.55 0.7 94.65 0.73 96.81 0.8C98.16 0.83 99.49 0.84 100.77 0.82C102.3 0.81 103.95 0.88 105.65 1.04C105.56 1.22 104.81 1.18 104.31 1.19C102.69 1.19 101.04 1.15 99.38 1.12C98.63 1.12 97.9 1.12 97.19 1.14C96.02 1.16 94.78 1.14 93.5 1.07C91.47 1.02 89.51 1.01 87.63 1.06C87.48 1.07 87.35 1.08 87.23 1.1C87.24 1.12 87.26 1.2 87.31 1.22C87.36 1.24 87.43 1.26 87.5 1.28C87.58 1.29 87.66 1.31 87.74 1.31C88.47 1.42 89.27 1.53 89.97 1.54C90 1.54 90.11 1.55 90.14 1.56C91.7 1.78 92.99 1.71 94.22 1.73C96.25 1.8 98.21 1.81 100.08 1.77C100.36 1.76 100.66 1.77 100.97 1.79C102.92 1.87 104.74 1.84 106.36 1.72C107.02 1.68 107.64 1.62 108.35 1.61C108.79 1.59 109.18 1.55 109.48 1.49C109.79 1.42 110.01 1.33 110.13 1.23C110.43 1.28 110.73 1.32 111.04 1.36C111.22 1.38 111.39 1.38 111.53 1.36C111.66 1.35 111.74 1.32 111.76 1.27C111.82 1.15 111.41 1.1 111.05 1.05C111.27 1.02 111.51 1 111.78 0.99C113.29 0.94 114.91 0.93 116.6 0.99C117.91 1.08 118.96 0.97 120.34 1.09C120.5 1.12 120.64 1.07 120.79 1.06C121.2 1 121.69 0.98 122.24 1C122.79 1.02 123.38 1.07 123.95 1.16C124.68 0.87 126.21 1.15 127.35 1.16C127.7 1.29 127.29 1.27 127.28 1.31C127.26 1.35 127.28 1.31 127.14 1.29C125.98 1.51 124.41 1.59 122.65 1.51C122.32 1.51 122.01 1.53 121.72 1.55C121.27 1.59 120.77 1.59 120.24 1.57C119.65 1.56 119.12 1.59 118.65 1.64C118.38 1.64 118.15 1.67 117.99 1.71C117.82 1.75 117.72 1.81 117.7 1.89C117.87 1.94 118.07 1.98 118.27 2.02C119.36 2.17 120.44 2.22 121.32 2.16C122.84 2.06 124.64 2.09 126.26 2.03C127.35 2 128.51 2.01 129.71 2.05C129.86 2.08 129.96 2.18 130.11 2.19C130.05 2.16 129.98 2.1 129.88 2.08L129.52 2.03C129.76 2.01 130 1.96 130.25 1.99C130.78 2.03 131.29 2.04 131.75 2.02C132.21 2 132.61 1.95 132.92 1.88C133.47 1.78 134.14 1.73 134.91 1.72C135.49 1.7 136.06 1.67 136.6 1.63C136.6 1.63 136.64 1.55 136.9 1.5C136.66 1.46 136.41 1.42 136.16 1.4C135.07 1.34 133.98 1.3 132.91 1.27C132.51 1.27 132.14 1.29 131.8 1.32C130.85 1.36 129.79 1.35 128.68 1.27C128.68 1.27 128.46 1.24 128.35 1.22C128.67 1.05 129.74 1.2 130.19 1.07C130.45 1.07 130.92 1.08 130.91 1.05C130.87 1.01 130.87 0.97 130.9 0.94C130.93 0.91 130.99 0.88 131.08 0.86C131.17 0.84 131.28 0.83 131.41 0.83C131.54 0.83 131.69 0.83 131.83 0.85C133.06 0.92 134.21 0.92 135.23 0.86C135.62 0.85 136.05 0.87 136.43 0.87C136.67 0.87 136.88 0.87 137.06 0.84C138 0.69 139.24 0.66 140.61 0.74C141.27 0.77 141.89 0.77 142.44 0.72C142.83 0.71 142.99 0.8 143.26 0.84L144.43 0.91L142.91 1.06C143.22 1.32 143.47 1.41 144 1.41C144.76 1.42 145.51 1.42 146.23 1.4C146.77 1.39 147.22 1.32 147.93 1.41C148.06 1.43 148.18 1.43 148.28 1.42C149.14 1.31 150.16 1.27 151.28 1.3C151.88 1.11 152.86 1.26 153.77 1.38C154.07 1.24 153.54 1.19 153.22 1.12C153.99 1.11 154.77 1.09 155.56 1.1C155.8 1.08 156.07 1.09 156.35 1.11C156.63 1.14 156.92 1.18 157.19 1.23C157.32 1.27 157.48 1.29 157.63 1.3C157.78 1.31 157.92 1.31 158.01 1.29C158.43 1.22 159.08 1.26 159.43 1.16C159.55 1.14 159.73 1.13 159.92 1.14C160.11 1.15 160.31 1.18 160.48 1.23C160.29 1.25 160.12 1.27 159.97 1.31C159.45 1.42 159.63 1.58 160.27 1.81C161.29 1.78 162.32 1.76 163.27 1.69C163.8 1.64 164.44 1.64 165.12 1.69C165.81 1.75 166.51 1.85 167.14 1.99C167.37 2.04 167.64 2.08 167.88 2.08C168.13 2.09 168.34 2.08 168.47 2.04C168.55 1.99 168.58 1.94 168.55 1.88L167.89 1.78L168.88 1.68C169.39 1.67 169.92 1.68 170.39 1.67C171.1 1.62 171.89 1.62 172.74 1.67C173.52 1.72 174.29 1.76 175.04 1.78C175.76 1.8 176.29 1.67 176.98 1.64C177.51 1.62 178.08 1.62 178.68 1.65C179.72 1.7 180.68 1.69 181.47 1.59C182.36 1.98 182.81 2.03 183.66 1.91L184.06 1.87L184.17 1.95L184.48 1.93C185.05 1.9 185.62 1.87 186.22 1.85C187.04 1.87 187.93 1.95 188.8 2.09C188.96 2.11 189.18 2.2 189.32 2.27C189.46 2.34 189.77 2.55 189.99 2.68C189.73 2.79 189.44 2.89 189.23 3.01C189.26 3.04 189.3 3.14 189.36 3.16C189.42 3.18 189.5 3.21 189.59 3.23C189.68 3.25 189.77 3.26 189.87 3.27C190.05 3.29 190.23 3.3 190.41 3.31C191.26 3.3 192.08 3.27 192.85 3.23C193.14 3.18 193.53 3.17 193.95 3.19C194.38 3.22 194.83 3.29 195.22 3.38C196.23 3.3 197.41 3.29 198.66 3.36C200 3.28 201.6 3.36 202.85 3.21C202.82 3.27 202.94 3.38 203.12 3.44C203.39 3.53 203.71 3.61 204.05 3.68L206.67 3.78C206.76 3.86 206.88 3.94 207.02 4.01C207.12 4.07 207.29 4.13 207.5 4.17C207.7 4.22 207.94 4.24 208.14 4.24C208.66 4.25 209.1 4.19 209.72 4.31C208.75 4.45 207.45 4.46 206.06 4.34C204.75 4.25 203.49 4.22 202.32 4.24C201.94 4.25 201.43 4.27 201.3 4.34C201.02 4.54 200.33 4.52 199.51 4.5C198.88 4.48 198.29 4.49 197.81 4.55C197.32 4.61 196.95 4.71 196.73 4.84C196.67 4.96 196.79 5.06 197.35 5.12L199.67 5.35C200.01 5.31 200.34 5.26 200.65 5.2C201.18 5.13 201.82 5.1 202.53 5.11C203.24 5.13 204 5.19 204.75 5.3C205.13 5.35 205.51 5.41 205.79 5.37C206.04 5.33 206.27 5.29 206.48 5.24C206.52 5.2 206.54 5.17 206.54 5.13C206.68 5.14 206.83 5.16 206.97 5.19C208.11 5.5 209 5.48 209.82 5.38C210.04 5.35 210.21 5.3 210.43 5.26C210.66 5.23 210.74 5.18 210.94 5.19C212.54 5.27 213.03 4.89 214.39 4.88C214.46 4.86 214.5 4.84 214.51 4.81C214.42 4.79 214.27 4.67 214.15 4.66C214.04 4.64 213.92 4.63 213.81 4.63C213.19 4.6 212.64 4.62 212.25 4.7C211.97 4.74 211.68 4.77 211.38 4.79L210.05 4.29C211.37 4.31 212.61 4.28 213.76 4.21C214.02 4.18 214.44 4.22 214.79 4.22L217.37 4.22C217.91 4.21 218.37 4.12 219.1 4.3C219.1 4.3 219.58 4.32 219.72 4.29C219.85 4.26 220.44 4.08 220.79 3.97C221.19 3.99 221.74 4.06 221.99 4.03C222.44 3.95 222.82 3.86 223.14 3.75L224.69 3.86C224.68 4 224.62 4.12 224.5 4.24C224.37 4.36 224.37 4.49 224.49 4.63C224.61 4.78 224.85 4.92 225.19 5.07L226.69 5.82C226.94 5.86 227.2 5.89 227.45 5.9C227.7 5.91 227.92 5.9 228.07 5.86C228.74 5.76 229.49 5.67 230.16 5.57C231.01 5.69 230.78 5.92 231.39 6.1L233.38 6.39C233.67 6.68 233.97 6.97 233.03 7.09C232.84 7.11 232.96 7.22 232.78 7.27C233.5 7.48 234.29 7.54 235.02 7.66C235.31 7.76 235.54 7.86 235.72 7.96C235.91 8.12 236.31 8.27 236.83 8.4C237.35 8.52 237.95 8.6 238.5 8.61C239.42 8.68 240.36 8.79 241.27 8.93C241.58 8.98 241.91 9.02 242.22 9.04C242.53 9.05 242.82 9.05 243.07 9.03C243.97 8.99 244.73 8.88 245.31 8.73C245.89 8.59 246.65 8.51 247.54 8.51C249.05 8.72 249.33 9.09 250.23 9.39L248.64 9.46C248.57 9.59 248.67 9.75 248.01 9.76C247.36 9.77 247.69 9.88 247.89 10C247.96 10.06 248.1 10.12 248.29 10.17C248.48 10.23 248.7 10.26 248.92 10.28L250.26 10.41C250.74 10.46 251.2 10.48 251.6 10.46C252 10.44 252.32 10.38 252.52 10.3C252.76 10.22 253.08 10.16 253.46 10.13C253.96 10.06 254.36 9.96 254.67 9.84L256.57 9.97C256.66 9.85 256.93 9.76 257.33 9.72C257.73 9.68 258.24 9.68 258.78 9.74L260.06 9.82C261.48 9.91 261.8 9.86 262.24 9.52L260.56 8.95C260.82 8.79 261.07 8.65 261.32 8.5C260.9 8.32 260.35 8.14 259.7 8C259.1 7.84 258.48 7.69 257.85 7.55C257.16 7.4 256.43 7.28 255.57 7.11C255.43 7.06 255.21 6.96 254.94 6.86C254.66 6.77 254.37 6.68 254.08 6.59C254.14 6.47 254.2 6.35 254.1 6.21C254.63 6.24 255.18 6.31 255.69 6.41C256.2 6.51 256.67 6.64 257.04 6.78C257.1 6.8 257.18 6.82 257.26 6.84C257.35 6.86 257.44 6.88 257.54 6.89C258.47 6.96 258.91 7.14 259.35 7.36C259.65 7.47 260.04 7.57 260.47 7.64C261.29 7.76 262.09 7.91 262.88 8.05C263.12 8.09 263.37 8.13 263.62 8.15C264.44 8.23 265.26 8.35 266.05 8.5C266.31 8.54 266.56 8.59 266.77 8.65C266.98 8.71 267.16 8.78 267.28 8.85C267.08 8.93 266.97 9.03 266.95 9.15C266.91 9.23 267.48 9.37 267.75 9.48C268.02 9.59 267.48 9.54 267.3 9.56C266.54 9.6 266.4 9.64 266.84 9.89C266.98 9.96 267.08 10.04 267.12 10.11C267.15 10.18 267.14 10.25 267.06 10.31C266.94 10.55 266.6 10.75 266.36 10.98C266.7 11.13 267.27 11.28 267.32 11.46C267.35 11.5 267.41 11.55 267.5 11.59C267.59 11.63 267.71 11.67 267.84 11.7C268.2 11.78 268.53 11.86 268.79 11.96C269.06 12.06 269.26 12.16 269.37 12.27C269.41 12.31 269.51 12.35 269.64 12.39C269.77 12.43 269.94 12.45 270.09 12.47C270.28 12.48 270.45 12.47 270.57 12.45C270.69 12.43 270.74 12.38 270.72 12.33C270.73 12.24 270.71 12.14 270.66 12.04C270.7 11.97 270.74 11.9 270.62 11.79C271.18 11.82 271.77 11.89 272.32 12C272.87 12.11 273.37 12.24 273.74 12.39C274.16 12.55 274.55 12.72 275.01 12.9C274.9 13.12 274.9 13.12 275.89 13.48L281.25 13.56L282.34 13.79C283.35 13.99 283.6 13.97 284.25 13.84L284.69 13.72C285.6 13.85 286.64 14 287.22 13.71C287.4 13.89 287.51 13.95 287.47 13.98C287.18 14.25 286.69 14.48 286.03 14.67C285.86 14.72 285.74 14.78 285.54 14.82C284.9 15.04 284.73 15.37 285.07 15.73C285.25 15.89 285.5 16.05 285.83 16.21C285.32 16.45 284.65 16.65 283.84 16.81C283.16 16.94 282.59 17.1 282.15 17.3C281.76 17.49 281.19 17.64 280.46 17.74C280.09 17.79 279.81 17.86 279.66 17.97C279.6 18.24 279.68 18.53 279.9 18.83C279.94 18.92 280.06 19.02 280.25 19.11C280.44 19.21 280.69 19.3 281 19.38C281 19.38 281.14 19.44 281.21 19.48C281.25 19.8 281.01 20.1 280.5 20.34C280.42 20.41 280.25 20.46 280.02 20.49C279.79 20.51 279.5 20.52 279.18 20.5C278.52 20.48 277.9 20.48 277.26 20.48C276.57 20.46 275.96 20.5 275.49 20.58C275.02 20.67 274.71 20.8 274.6 20.97C274.59 21.02 274.56 21.06 274.53 21.1L275.93 21.68L274.25 21.93C274.14 22.15 274.93 22.26 275.32 22.42L275.07 22.51C274.75 22.57 274.32 22.48 273.93 22.43L273.55 22.38L273.5 22.48C273.25 22.62 272.38 22.49 272.03 22.59C271.68 22.7 271.92 22.81 272.42 22.91C272.78 22.99 273.16 23.04 273.53 23.08C273.91 23.12 274.28 23.13 274.61 23.12C274.81 23.11 274.97 23.08 275.09 23.04C275.79 22.87 276.57 22.71 277.41 22.58C278.06 22.47 278.86 22.41 279.76 22.41C280.03 22.4 280.35 22.41 280.66 22.46C280.98 22.5 281.27 22.57 281.49 22.66L281.95 22.66C281.95 22.66 282.2 22.75 282.17 22.76C281.97 23.03 282.16 23.35 282.7 23.67L282.21 23.71C281.51 23.69 281.94 23.89 281.83 23.99C281.34 23.98 280.7 23.91 280.45 24.04L280.1 24.04L280.24 24.06L280.45 24.04L281.05 24.19C280.74 24.22 280.51 24.27 280.24 24.29C280.08 24.31 279.96 24.34 279.87 24.37C279.79 24.41 279.74 24.46 279.74 24.51C279.74 24.59 279.65 24.66 279.49 24.71C279.33 24.76 279.1 24.79 278.83 24.8C278.5 24.81 278.31 24.9 278.11 24.93L278.91 25.43C278.91 25.43 278.5 25.37 278.72 25.46L279.25 25.51C279.61 25.62 279.86 25.64 280.08 25.56C280.3 25.47 280.25 25.58 280.35 25.55C280.31 25.63 280.07 25.69 279.87 25.75C279.63 25.79 279.37 25.82 279.08 25.85C279.58 26.2 279.6 26.21 278.84 26.32C278.08 26.43 278.33 26.57 277.69 26.61C277.06 26.64 277.76 26.87 278.18 26.91C278.5 26.94 278.81 26.98 279.11 27.04C279.41 27.09 279.69 27.16 279.92 27.24L279.78 27.52C279.59 27.51 279.41 27.48 279.23 27.45C278.63 27.31 278.08 27.17 277.53 27.27L277.77 27.48L275.88 27.39C275.92 27.55 276.2 27.73 276.66 27.88C276.58 27.98 276.53 28.07 276.51 28.17C276.47 28.24 276.29 28.2 276.16 28.21C275.73 28.23 275.37 28.29 275.11 28.37C274.86 28.46 274.72 28.57 274.71 28.7C274.66 28.8 275.31 29.02 275.73 29C276.77 29 277.9 29.06 279.05 29.18C279.75 29.18 279.87 28.89 281.01 29.07C281.03 29.2 280.87 29.31 280.57 29.38C280.27 29.45 279.84 29.48 279.34 29.46C279.6 29.75 281.17 29.79 281.22 30.09C280.83 30.08 280.42 30.04 280.02 29.97C279.62 29.9 279.25 29.82 278.95 29.71C278.88 29.69 278.8 29.67 278.71 29.65C278.62 29.63 278.52 29.62 278.42 29.61C278.32 29.6 278.23 29.6 278.16 29.61C278.08 29.61 278.02 29.63 277.98 29.64C278.19 29.75 278.42 29.87 278.69 29.99C278.95 30.1 279.02 30.15 279.21 30.17C280.66 30.38 281.33 30.79 282.58 31.05C282.91 31.09 282.94 31.26 282.65 31.25C282.38 31.24 282.13 31.24 281.94 31.27C281.74 31.3 281.6 31.35 281.54 31.41C281.32 31.48 281.06 31.54 280.74 31.59C282.02 32 283.54 32.36 285.18 32.62C285.49 32.68 285.81 32.7 286.1 32.71C287.03 32.69 288.01 32.7 289.02 32.75C289.38 32.76 289.71 32.75 290 32.73C290.95 32.65 291.69 32.75 292.35 33.06L293.46 33.55C293.41 33.63 293.22 33.73 293.06 33.86L293.93 34.11L300.73 33.35L302.04 33.93L303.99 33.86C304.14 33.87 304.29 33.89 304.43 33.92C304.81 34.09 305.11 34.26 305.52 34.42C305.94 34.58 306.7 34.59 307.22 34.78C307.74 34.97 308.27 34.96 308.92 35.07C308.97 35.23 308.9 35.37 308.7 35.49C308.63 35.62 308.29 35.71 308.23 35.84C308.23 35.97 308.1 36.08 307.85 36.17C307.6 36.25 307.24 36.31 306.8 36.33C305.57 36.62 304.09 36.85 302.41 36.99C302.26 37 302.14 37.02 302.05 37.05C301.96 37.08 301.9 37.12 301.88 37.17C301.87 37.29 301.76 37.4 301.53 37.49C301.31 37.57 300.99 37.64 300.59 37.67C300.49 37.68 300.41 37.69 300.36 37.72C300.21 37.74 300.1 37.77 300.04 37.81C299.98 37.86 299.97 37.91 300.01 37.96C300.06 38.02 300.16 38.08 300.3 38.13C300.44 38.19 300.61 38.23 300.81 38.27C301.1 38.34 301.39 38.4 301.69 38.45C301.67 38.49 301.37 38.5 301.41 38.54C301.52 38.65 301.54 38.75 301.47 38.84C301.4 38.93 301.24 39 301 39.05L302.56 39.91C303.53 40.01 304.48 40.2 305.22 40.44C305.22 40.48 305.17 40.52 305.09 40.54C305 40.57 304.88 40.59 304.73 40.59C304.34 40.62 303.96 40.66 303.54 40.69C303.28 40.71 303.06 40.75 302.89 40.8C302.73 40.85 302.63 40.92 302.59 40.99L303.51 41.3C303.2 41.39 302.98 41.43 302.77 41.49C302.88 41.59 303.07 41.69 303.32 41.79C303.58 41.89 303.89 41.98 304.25 42.05C304.34 42.06 304.44 42.08 304.53 42.08C304.62 42.09 304.71 42.09 304.79 42.08C305.53 41.95 306.38 42.13 307.2 42.31C308.02 42.48 308.47 42.58 309.07 42.72L310.25 42.72C310.54 42.78 310.8 42.86 311.01 42.94C311.22 43.02 311.37 43.11 311.44 43.2C311.37 43.34 310.82 43.27 310.48 43.29C309.69 43.4 308.65 43.4 307.54 43.3C307.27 43.26 306.98 43.3 306.71 43.31C306.13 43.34 305.57 43.38 305.04 43.43C304.68 43.47 304.35 43.53 304.04 43.59C303.95 43.77 305.22 43.88 304.49 43.98C304.74 44.01 304.82 44.07 304.95 44.05C305.77 44.15 306.57 44.19 307.27 44.16C308.62 44.11 310.15 44.16 311.72 44.31C313.42 44.46 315.06 44.51 316.5 44.44C317.05 44.43 317.66 44.45 318.28 44.52C319.02 44.61 319.75 44.66 320.44 44.67C320.67 44.66 320.92 44.68 321.17 44.7C321.43 44.73 321.68 44.78 321.91 44.83C321.89 44.87 321.66 44.91 321.71 44.93C322.4 45.25 322.67 45.59 323.74 45.91C324.48 46.02 325.32 46.14 325.82 45.97C326.32 45.8 326.15 45.66 325.21 45.27C325.42 45.26 325.67 45.28 325.92 45.31C326.17 45.35 326.4 45.4 326.58 45.47L327.4 45.76L328.14 46.04C328.06 46.18 328 46.3 327.94 46.42C327.84 46.55 327.93 46.71 328.18 46.86C328.34 46.95 328.47 47.03 328.58 47.12C329.03 47.46 329.15 47.79 328.91 48.07C328.48 48.47 327.88 48.85 327.13 49.19C326.34 49.53 325.9 49.94 325.24 50.3C324.91 50.46 324.51 50.61 324.04 50.75C323.16 51.04 322.19 51.32 321.3 51.62C320.41 51.92 319.42 52.15 318.43 52.4C316.98 52.71 315.41 52.98 313.73 53.21C312.69 53.4 311.62 53.6 310.66 53.82C309.52 54.07 308.19 54.26 306.69 54.38C305.38 54.52 304.19 54.71 303.17 54.95C303.06 54.98 302.98 55.01 302.92 55.05C302.72 55.27 302.2 55.44 301.44 55.52C301.48 55.59 301.53 55.65 301.6 55.72C301.7 55.8 301.72 55.87 301.65 55.93C301.58 56 301.43 56.04 301.22 56.06C300.61 56.13 300.1 56.24 299.71 56.37C299.57 56.41 299.48 56.46 299.45 56.51C299.42 56.57 299.45 56.64 299.54 56.71C299.61 56.78 299.62 56.84 299.54 56.9C299.47 56.95 299.32 56.99 299.12 57C298.6 57.08 298.05 57.15 297.46 57.2C296.21 57.32 294.77 57.35 293.22 57.28C293.05 57.26 292.88 57.31 292.69 57.28C291.6 57.2 290.57 57.2 289.75 57.29C288.78 57.34 287.78 57.35 286.76 57.39C285.29 57.41 283.94 57.49 282.73 57.63C281.36 57.55 280.58 57.76 279.42 57.79C278.35 57.83 277.33 57.9 276.37 57.99C274.84 58.12 273.31 58.24 271.79 58.39C270.37 58.48 269.06 58.61 267.89 58.79C267.43 58.87 266.63 58.78 266.32 58.93C266 59.09 265.39 59.08 264.89 59.14L263.31 59.29C263.04 59.33 262.74 59.35 262.42 59.37C260.96 59.41 259.94 59.63 258.58 59.69L258.44 59.67C256.02 60.02 253.26 60.24 250.24 60.32C248.47 60.45 246.54 60.48 244.67 60.59C244.21 60.73 243.17 60.58 242.6 60.72C242.04 60.85 241.13 60.79 240.4 60.82C239.68 60.86 238.97 60.92 238.2 60.94C237.53 60.95 236.96 61.02 236.55 61.13C235.6 61.32 234.45 61.44 233.16 61.49C231.44 61.57 229.82 61.7 228.08 61.71C228.1 61.84 227.98 61.95 227.75 62.03C227.52 62.11 227.17 62.16 226.76 62.17C224.89 62.26 223.2 62.42 221.31 62.49L220.8 62.5L215.15 62.69C213.63 62.73 212.17 62.78 210.62 62.83C210.04 62.75 210.02 62.91 209.62 62.89C209.51 62.81 209.38 62.78 209.18 62.82L202.68 63.18C200.15 63.32 197.5 63.4 194.74 63.42C194.09 63.44 193.47 63.49 192.91 63.55C192.4 63.58 191.86 63.6 191.3 63.61C190.54 63.6 189.81 63.6 189.09 63.62C187.2 63.69 185.22 63.71 183.16 63.73C181.09 63.74 179.53 63.82 177.69 63.86C176.44 63.88 175.2 63.89 173.92 63.88C173.3 63.87 172.55 63.79 171.92 63.77C171.28 63.75 171.07 63.75 170.99 63.81C170.7 63.97 170.01 63.88 169.45 63.88C168.37 63.88 168.21 63.83 167.95 63.44L169.29 63.28C169.62 63.24 170.03 63.22 170.48 63.24C170.94 63.26 171.42 63.31 171.88 63.39C172.06 63.42 172.25 63.44 172.44 63.46C172.63 63.48 172.81 63.48 172.98 63.48C174.32 63.43 175.65 63.36 176.95 63.3L177.14 63.27L177.17 62.92C177 62.88 176.83 62.86 176.65 62.84L170.18 62.74C168.7 62.72 167.16 62.62 165.7 62.6C164.24 62.58 163.46 62.56 162.33 62.53C161.85 62.51 161.37 62.48 160.88 62.44C160.91 62.41 160.93 62.37 160.93 62.33C160.96 62.27 161 62.2 160.8 62.14C160.57 62.06 160.27 61.99 159.95 61.95C159.65 61.93 159.36 61.91 159.09 61.92C157.78 61.91 156.29 61.76 154.94 61.48L154.45 61.69C152.4 61.62 150.32 61.55 148.18 61.49C147.75 61.47 147.3 61.42 146.87 61.35C146.4 61.28 145.98 61.13 145.49 61.05C145.01 61 144.52 60.96 144.05 60.94C144.19 60.88 144.36 60.84 144.56 60.81C144.77 60.79 144.91 60.76 144.99 60.7C145.06 60.65 145.06 60.59 144.97 60.52C144.83 60.4 144.77 60.29 145.1 60.27C145.41 60.24 145.64 60.17 145.75 60.09C145.86 60 145.86 59.89 145.74 59.78C145.68 59.71 145.65 59.65 145.63 59.59L145.49 59.57C145.05 59.34 144.15 59.27 143.5 59.09C143.2 59.04 142.88 59.01 142.6 59.02C141.88 58.99 141.18 58.99 140.44 58.95C140.08 58.93 139.71 58.89 139.35 58.84C138.83 58.77 138.77 58.76 138.49 58.46C138.96 58.45 139.34 58.4 139.56 58.3C139.78 58.21 139.82 58.08 139.69 57.94C139.32 57.63 138.93 57.31 137.17 57.12C137.75 57.1 138.31 57.06 138.84 57.02C139 57.01 139.11 56.98 139.18 56.95C139.24 56.91 139.25 56.86 139.2 56.81C139.15 56.76 139.04 56.7 138.9 56.66C138.75 56.61 138.57 56.57 138.38 56.55C137.46 56.39 136.49 56.29 135.59 56.26C134.83 56.25 134.14 56.28 133.25 56.3L132.21 56.15C132.23 56.11 132.08 56.06 132.12 56.04C132.4 55.84 132.71 55.64 133.02 55.42C132.55 55.32 132.14 55.19 131.84 55.05C131.54 54.91 131.37 54.77 131.34 54.64C131.32 54.6 131.33 54.56 131.37 54.53C131.41 54.5 131.48 54.48 131.58 54.46C131.86 54.43 132.07 54.37 132.21 54.3C132.35 54.23 132.41 54.14 132.38 54.05L131.58 53.71C129.14 53.5 126.73 53.37 124.41 53.31L122.32 53.27C122.07 53.18 122.15 53.14 122.39 53.13C122.63 53.12 123.3 53.14 123.77 53.14C124.17 53.15 124.53 53.13 124.81 53.09C125.09 53.04 125.29 52.96 125.38 52.87L124.7 52.48C124.74 52.4 124.79 52.29 125.17 52.29C125.44 52.28 125.63 52.23 125.73 52.17C125.82 52.11 125.82 52.02 125.71 51.94C125.69 51.87 125.72 51.82 125.8 51.76C126.36 51.75 126.92 51.74 127.44 51.71C127.68 51.7 127.88 51.67 128.03 51.63C128.19 51.59 128.29 51.53 128.33 51.47C128.35 51.4 128.31 51.33 128.21 51.26C128.11 51.18 127.95 51.11 127.75 51.05C126.95 50.97 126.22 50.99 125.71 51.08C125.52 51.15 125.23 51.2 124.87 51.21C124.51 51.21 124.09 51.19 123.68 51.13C123.21 51.07 122.74 51.04 122.35 51.07C121.96 51.09 121.68 51.16 121.56 51.26C121.08 51.23 120.65 51.21 120.22 51.18C119.72 51.13 119.25 51.13 118.85 51.16C118.22 51.19 117.53 51.19 116.82 51.17C114.76 51.12 112.69 51.08 110.69 51.09C110.16 51.09 109.7 51.13 109.18 51.11C108.66 51.1 108.24 51.17 107.59 51.06C107.47 51.04 107.35 51.03 107.23 51.03C107.11 51.03 107.01 51.03 106.92 51.05C105.77 51.17 104.42 51.21 102.96 51.17C100.95 51.19 98.86 51.18 96.85 51.21C96.26 51.23 95.7 51.27 95.18 51.32C94.78 51.36 94.37 51.38 93.93 51.4C93.6 51.42 93.29 51.4 93.34 51.54C93.38 51.67 92.89 51.6 92.61 51.58C91.63 51.53 90.64 51.46 89.63 51.37C88.65 51.26 87.67 51.21 86.78 51.21C86.13 51.22 85.46 51.26 84.63 51.09C84.67 51.02 84.71 50.95 84.89 50.87C84.23 50.69 83.46 50.53 82.66 50.42C81.86 50.3 81.05 50.23 80.3 50.22L79.28 49.86C79.02 49.82 78.76 49.79 78.51 49.78C78.26 49.76 78.02 49.77 77.82 49.78C77.66 49.79 77.46 49.78 77.27 49.75C77.08 49.72 76.91 49.68 76.78 49.63C76.58 49.57 76.34 49.52 76.09 49.48C75.84 49.44 75.58 49.43 75.35 49.43C74.64 49.4 73.88 49.32 73.15 49.2C72.97 49.12 72.85 49.04 72.82 48.96C72.8 48.88 72.85 48.82 72.99 48.77C73.21 48.68 73.34 48.57 73.37 48.45C73.4 48.33 73.32 48.2 73.15 48.06C73.06 47.98 73.04 47.89 73.07 47.82C73.11 47.75 73.21 47.69 73.37 47.64C73.95 47.41 73.81 47.29 72.89 46.96C72.75 46.9 72.57 46.85 72.37 46.8C72.17 46.76 71.95 46.72 71.73 46.7C71.22 46.65 70.72 46.62 70.23 46.6C69.95 46.56 69.67 46.6 69.35 46.59C67.76 46.54 67.54 46.4 67.04 46.11L66.68 45.9C65.99 45.74 65.24 45.61 64.47 45.52C63.71 45.43 62.95 45.38 62.25 45.38C61.97 45.38 61.65 45.36 61.34 45.31C60.34 45.17 59.31 45.07 58.34 45.03C57.74 45.02 57.09 44.95 56.47 44.84C55.86 44.73 55.3 44.58 54.87 44.41C54.49 44.27 53.98 44.14 53.42 44.04C52.76 43.95 52.71 43.82 53.08 43.72C53.46 43.61 54.09 43.48 54.65 43.36C54.84 43.32 54.96 43.27 55 43.19C55.04 43.12 54.99 43.04 54.86 42.95C54.78 42.8 54.77 42.66 54.84 42.53C54.87 42.47 54.86 42.41 54.79 42.35C54.72 42.28 54.61 42.22 54.45 42.15C54.29 42.09 54.1 42.03 53.88 41.98C53.66 41.93 53.42 41.89 53.18 41.87C52.17 41.72 51.19 41.58 50.15 41.48C49.72 41.43 49.28 41.37 48.86 41.3C48.01 41.11 47.08 40.96 46.15 40.85C45.71 40.81 45.28 40.72 44.96 40.61C43.93 40.31 42.99 40 42.15 39.67C41.95 39.57 41.68 39.47 41.37 39.38C41.06 39.29 40.7 39.21 40.33 39.15C40.03 39.11 39.79 39.01 39.56 38.94C39.4 38.78 39.39 38.62 39.53 38.49C39.68 38.36 39.97 38.26 40.38 38.2C40.77 38.12 41.14 38.04 41.48 37.95C41.89 37.87 42.37 37.82 42.91 37.8C43.54 37.75 44.02 37.64 44.28 37.48C42.55 37.23 40.92 36.86 39.39 36.99L38.24 36.75C38.3 36.65 38.34 36.56 38.39 36.48C38.67 36.32 38.77 36.13 38.67 35.92C38.59 35.82 38.6 35.73 38.71 35.65C38.83 35.57 39.03 35.51 39.31 35.48C40.97 35.17 42.87 34.95 44.43 34.61C44.91 34.54 45.48 34.5 46.1 34.49C46.71 34.46 46.69 34.32 46.01 34.16C45.62 34.08 45.23 34 44.84 33.93C43.06 33.95 42.31 34.38 40.29 34.31L39.39 33.78C39.14 33.77 38.89 33.78 38.65 33.78L35.24 34.07C34.96 34.09 34.74 34.13 34.6 34.2C34.47 34.26 34.42 34.34 34.47 34.43C34.49 34.54 34.43 34.65 34.31 34.74C34.24 34.8 34.28 34.89 34.43 34.97C34.78 35.16 34.32 35.19 34.02 35.25C33.95 35.26 33.86 35.26 33.77 35.25C33.68 35.25 33.59 35.24 33.49 35.23C33.4 35.21 33.31 35.2 33.22 35.17C33.14 35.15 33.07 35.13 33.01 35.1C32.51 34.93 32.08 34.74 31.59 34.55C31.96 34.35 31.56 34.04 32.13 33.85C32.19 33.81 32.22 33.77 32.21 33.72C32.2 33.67 32.15 33.62 32.07 33.57C31.85 33.44 31.75 33.31 31.78 33.19C31.81 33.07 31.96 32.98 32.23 32.91C31.55 32.68 31.78 32.4 31.53 32.16L30.87 32.01C29.23 31.65 29.23 31.66 27.8 31.7C27.52 31.56 27.89 31.53 28.16 31.5L30.48 31.29C31.99 31.15 33.54 31.04 35.23 30.96C36.91 30.89 38.79 30.71 40.54 30.57C40.63 30.56 40.69 30.55 40.74 30.52C40.67 30.49 40.63 30.38 40.52 30.35C40.42 30.33 40.3 30.3 40.19 30.29C39.64 30.21 39.07 30.16 38.49 30.1L37.4 29.99L37.07 29.83C36.86 29.73 36.72 29.61 36.43 29.54C36.19 29.49 35.93 29.45 35.68 29.43C35.42 29.41 35.19 29.41 34.99 29.43C34.43 29.47 33.93 29.53 33.41 29.59C32.88 29.64 32.59 29.7 32.13 29.73C31.2 29.76 30.31 29.8 29.45 29.86C28.72 29.98 28.04 30.11 27.42 30.26C27.04 30.32 26.68 30.4 26.03 30.34C25.73 30.28 25.46 30.2 25.29 30.12C25.12 30.03 25.05 29.94 25.1 29.87C25.13 29.81 25.24 29.76 25.39 29.73C25.55 29.7 25.75 29.68 25.98 29.68C26.64 29.66 27.24 29.61 27.79 29.54C28.55 29.42 29.47 29.36 30.5 29.35C30.85 29.36 31.09 29.3 31.39 29.27C31.7 29.25 31.96 29.2 32.3 29.22C33.35 29.29 33.87 29.14 34.51 29.04C34.73 29 34.86 28.93 34.91 28.85C34.95 28.77 34.89 28.68 34.75 28.58C34.47 28.39 34.12 28.2 33.72 28.01C33.51 27.92 33.24 27.84 32.93 27.76C32.62 27.69 32.28 27.63 31.93 27.59C31.73 27.48 31.63 27.36 31.63 27.26C31.64 27.15 31.75 27.06 31.95 26.99C32.47 26.83 32.94 26.67 34.08 26.73C34.62 26.75 35.13 26.75 35.59 26.72C36.6 26.67 37.77 26.7 38.97 26.82C39.28 26.85 39.59 26.87 39.88 26.88C41.97 26.92 43.97 26.92 45.97 26.91C47.03 26.91 48.1 26.88 49.21 26.9C51.8 26.94 54.17 26.84 56.68 26.82C58 26.81 59.18 26.73 60.16 26.57C60.35 26.52 60.52 26.46 60.66 26.4C60.02 26.25 59.32 26.14 58.62 26.08C57.92 26.01 57.24 25.99 56.65 26.02C56.33 26.07 55.91 26.09 55.45 26.07C54.99 26.05 54.5 25.99 54.04 25.91L55.4 25.83C56.31 25.78 57.23 25.76 58.11 25.7C59.51 25.61 60.8 25.49 62.25 25.42C63.42 25.36 64.46 25.25 65.36 25.08C66.01 24.96 66.75 24.87 67.56 24.81C68.13 24.77 68.13 24.77 68.51 24.55C68.23 24.41 67.86 24.4 67.5 24.4C65.38 24.35 63.36 24.38 61.47 24.48C60.52 24.5 59.68 24.58 58.97 24.71C58.8 24.76 58.37 24.74 58.02 24.73C56.93 24.73 55.88 24.76 54.89 24.82C53.53 24.91 52.01 24.92 50.4 24.87C50.1 24.76 50.46 24.76 50.48 24.72C51.73 24.63 52.96 24.52 54.24 24.43C54.59 24.41 54.96 24.39 55.35 24.38C56.81 24.39 58.04 24.26 58.86 24.01C58.91 23.92 59.43 23.92 59.67 23.86C59.79 23.81 59.87 23.75 59.91 23.68C59.58 23.52 59.2 23.53 58.9 23.54C58.04 23.57 57.21 23.62 56.41 23.69C55.67 23.75 54.86 23.78 53.99 23.78C53.34 23.77 52.79 23.81 52.14 23.82C51.79 23.81 51.43 23.78 51.07 23.75C51.48 23.62 52.05 23.54 52.72 23.51C53.23 23.43 53.86 23.4 53.95 23.22C53.72 23.09 53.46 23.1 53.24 23.11C52.8 23.12 52.37 23.14 51.95 23.16C51.08 23.22 50.13 23.24 49.13 23.22C48.61 23.22 48.11 23.23 47.64 23.26C46.59 23.31 45.58 23.4 44.61 23.45C42.64 23.51 40.83 23.66 38.93 23.75C38.51 23.77 38.13 23.83 37.58 23.76C37.03 23.68 37 23.67 36.94 23.62C36.79 23.54 36.75 23.46 36.82 23.39C36.94 23.33 37.15 23.29 37.44 23.29C39.14 23.16 40.75 22.99 42.27 22.79C42.94 22.75 43.53 22.67 44.01 22.55C44.4 22.48 44.85 22.42 45.36 22.39C46.1 22.32 46.87 22.27 47.67 22.23C48.05 22.21 48.36 22.16 48.61 22.1C48.86 22.03 49.02 21.95 49.1 21.85L48.15 21.54C47.99 21.53 47.84 21.52 47.69 21.51L39.55 21.91L38.75 21.93C37.87 21.93 37.66 21.89 36.84 21.52C38.76 21.39 40.28 21.1 41.25 20.68C41.02 20.64 40.79 20.6 40.56 20.58C39.04 20.51 37.6 20.52 36.3 20.59C35.52 20.61 34.73 20.61 33.93 20.62C34.17 20.43 35.07 20.47 35.65 20.42C37.05 20.32 38.29 20.16 39.33 19.94C39.7 19.85 40.14 19.79 40.66 19.76C41.17 19.74 41.61 19.69 41.92 19.59C42.23 19.5 42.42 19.38 42.45 19.24C42.51 19.11 42.62 18.98 42.79 18.87C42.52 18.72 42.08 18.58 41.56 18.48C41.04 18.38 40.47 18.32 39.96 18.31C38.88 18.27 37.76 18.19 36.62 18.07C36.06 18.01 35.5 17.98 34.99 17.98C34.54 17.98 34.04 17.94 33.55 17.86C33.06 17.78 32.61 17.67 32.28 17.54C31.84 17.38 31.42 17.21 31.01 17.05C30.59 16.89 30.11 16.68 29.62 16.48C29.19 16.46 28.76 16.44 28.35 16.44C28.03 16.46 27.66 16.44 27.28 16.4C26.9 16.36 26.53 16.29 26.21 16.2C26.41 16.1 26.63 16.02 26.86 15.91C26.56 15.77 26.35 15.63 26.23 15.5C26.11 15.36 26.09 15.23 26.18 15.12C26.23 15.02 25.91 14.85 25.8 14.72C25.66 14.61 25.63 14.5 25.74 14.41C25.84 14.32 26.06 14.26 26.38 14.23C26.77 14.17 27.08 14.09 27.32 13.99C27.4 13.96 27.44 13.93 27.44 13.89C27.44 13.85 27.4 13.8 27.32 13.76C27.25 13.72 27.13 13.67 27 13.64C26.86 13.6 26.71 13.57 26.55 13.55C26.06 13.49 25.56 13.45 25.1 13.44C24.31 13.43 23.55 13.42 22.82 13.43C22.02 13.43 21.12 13.37 20.24 13.25C19.44 13.14 18.73 13.04 18.36 12.8C17.98 12.56 17.35 12.58 16.88 12.41C17.16 12.24 17.65 12.12 18.3 12.05C18.72 12.03 19.08 11.97 19.34 11.89C19.6 11.81 19.77 11.7 19.83 11.58L18.4 11.11C17.25 10.9 16.59 11.09 15.33 11.02L16.65 10.81C16.54 10.44 16.38 10.3 15.06 10.12L14.32 10.01L13.15 9.89C12.97 9.82 12.84 9.74 12.79 9.67C12.73 9.59 12.75 9.52 12.84 9.47C13.02 9.37 13.08 9.26 13.02 9.13C12.91 9.04 12.9 8.96 13 8.9C13.1 8.84 13.3 8.8 13.57 8.79C13.78 8.78 13.8 8.68 13.92 8.62C14.04 8.54 14.24 8.48 14.5 8.44C14.77 8.39 15.09 8.37 15.46 8.37C16.53 8.36 17.54 8.31 18.47 8.23L18.31 8.2C19.27 8.24 20.17 8.23 20.97 8.17C21.77 8.1 22.79 8.11 23.64 8.06C24.33 8.06 24.86 7.97 25.11 7.82C25.36 7.67 26.24 7.69 26.91 7.7C27.3 7.71 27.69 7.71 28.05 7.7C28.55 7.66 29.16 7.68 29.79 7.75C29.98 7.77 30.17 7.78 30.33 7.78C31.95 7.78 33.56 7.79 35.15 7.78C35.52 7.76 35.95 7.78 36.39 7.82C36.58 7.84 36.76 7.85 36.91 7.84C39.43 7.73 42.27 7.82 44.74 7.69C45.04 7.67 45.37 7.66 45.73 7.66C46.52 7.69 47.21 7.65 47.7 7.54C47.96 7.48 48.3 7.44 48.68 7.43C49.07 7.42 49.5 7.43 49.94 7.47C50.67 7.52 51.36 7.51 51.92 7.45C53 7.38 54.14 7.34 55.33 7.33C55.69 7.33 56.01 7.3 56.27 7.26C56.52 7.21 56.7 7.14 56.79 7.05C56.51 6.92 56.19 6.91 55.89 6.92C54.72 6.91 53.55 6.9 52.4 6.91C51.37 6.88 50.39 6.89 49.45 6.93C48.99 6.96 48.42 6.92 47.86 6.84C47.17 6.73 46.46 6.68 45.87 6.7C45.43 6.72 44.97 6.72 44.49 6.7C44.18 6.68 43.87 6.63 43.59 6.57C43.47 6.54 43.35 6.52 43.22 6.51C43.1 6.49 42.97 6.48 42.85 6.48C42.73 6.48 42.63 6.48 42.54 6.5C42.45 6.51 42.38 6.53 42.33 6.55C41.88 6.75 40.89 6.68 40.04 6.67C38.78 6.37 37.82 6.58 36.64 6.42C36.55 6.41 36.46 6.4 36.37 6.4C36.29 6.4 36.21 6.41 36.14 6.42C33.83 6.58 31.15 6.54 28.72 6.62C28.46 6.64 28.15 6.62 27.83 6.59C25.77 6.35 23.78 6.31 22.25 6.48C22.06 6.49 21.85 6.5 21.62 6.49C20.59 6.4 19.59 6.38 18.72 6.42C17.36 6.44 16.05 6.47 14.67 6.48C13.72 6.46 12.88 6.52 12.24 6.64C12.21 6.68 11.79 6.64 11.47 6.65C11.29 6.54 11.14 6.44 10.95 6.34C10.79 6.23 10.54 6.11 10.22 6C9.9 5.88 9.52 5.78 9.11 5.7C8.39 5.6 8.33 5.43 8.84 5.36C10.15 5.13 11.79 5.01 13.63 5.02C15.17 4.99 16.74 4.97 18.3 4.96C19.21 4.96 20.17 4.98 21.06 4.96C21.36 4.97 21.66 4.99 21.97 5.01C22.35 5.05 22.73 5.06 23.07 5.06C24.16 5 25.38 5.01 26.67 5.08C27.14 5.09 27.6 5.09 28.02 5.07C29.04 5.02 30.14 5.02 31.29 5.06C32 5.08 32.7 5.09 33.37 5.08C33.6 5.08 33.8 5.04 34.02 5.06C36 5.26 37.43 5.06 39.22 5.11C40.1 5.12 40.93 5.11 41.72 5.06C43.25 5.03 44.82 5.03 46.42 5.05C48.55 5.09 50.52 5.02 52.55 5.01C52.95 5.01 53.34 5 53.71 4.99C55.52 4.89 57.48 4.86 59.54 4.91C60.01 4.91 60.43 4.89 60.78 4.84C61.13 4.79 61.4 4.71 61.57 4.61C61.65 4.54 61.61 4.46 61.46 4.37C61.21 4.26 60.93 4.16 60.62 4.06L49.14 3.93C48.66 3.93 48.19 3.92 47.73 3.93C46.39 3.96 45.01 3.96 43.59 3.93C42.19 3.91 40.85 3.95 39.49 3.96C39.09 3.96 38.68 3.96 38.26 3.95C35.44 3.86 32.68 3.83 30 3.85C28.88 3.87 27.66 3.83 26.52 3.83C25.37 3.83 23.8 3.85 22.44 3.87L18.23 3.96C17.4 3.97 16.59 4 15.78 4.03C14.84 3.58 14.51 3.48 13.22 3.3C12.78 3.23 12.33 3.2 11.92 3.2C10.62 3.26 9.01 3.14 7.78 3.19C7.04 3.19 6.41 3.25 5.96 3.37C5.56 3.46 5.11 3.54 4.6 3.6C3.27 3.23 3.16 2.97 4.2 2.85C4.47 2.82 4.86 2.82 5.06 2.77C5.18 2.74 5.34 2.72 5.52 2.71C5.71 2.7 5.92 2.71 6.14 2.73C6.83 2.78 7.47 2.78 8.02 2.74C8.53 2.68 9.15 2.67 9.82 2.7C10.32 2.78 10.76 2.65 11.19 2.61C11.63 2.57 11.98 2.5 12.65 2.58C12.77 2.59 12.89 2.6 13 2.6C13.12 2.6 13.22 2.6 13.29 2.58C14.02 2.51 14.88 2.5 15.81 2.55C17.23 2.59 18.57 2.56 19.78 2.47C20.51 2.41 21.13 2.3 21.62 2.15C21.76 2.1 21.96 2.07 22.2 2.06C23.41 2.07 24.72 2.14 26.04 2.29C26.54 2.35 27.04 2.4 27.53 2.43C28.53 2.5 29.51 2.53 30.42 2.52C31.75 2.49 33.13 2.5 34.55 2.54C35.43 2.56 36.28 2.55 37.09 2.53C37.91 2.51 38.8 2.52 39.71 2.56C40.63 2.59 41.43 2.55 42.04 2.43C42.24 2.37 42.41 2.3 42.53 2.22C41.2 2.01 39.83 1.91 38.67 1.96C38.24 1.95 37.87 1.97 37.41 1.89C37.32 1.91 37.17 1.95 37.01 1.94C36.85 1.93 36.68 1.91 36.54 1.87C36.6 1.75 36.66 1.63 36.71 1.55C37.58 1.55 38.44 1.53 39.26 1.5C39.96 1.46 40.88 1.65 41.49 1.56C42.65 1.64 43.41 1.48 44.46 1.5C45.51 1.52 46.65 1.63 47.7 1.65C48.62 1.65 49.51 1.64 50.37 1.61C50.66 1.58 51 1.58 51.37 1.6C51.88 1.64 52.36 1.64 52.75 1.6C53.14 1.55 53.42 1.48 53.57 1.37C53.44 1.28 53.27 1.16 53.07 1.03C53.46 0.92 54.05 0.86 54.74 0.87L55.72 0.84C55.98 0.84 56.18 0.81 56.28 0.75C56.38 0.7 56.37 0.62 56.26 0.54C54.42 0.17 54.36 0.13 52.98 0.42L51.2 0.33ZM75.67 0.96L75.53 0.94L75.67 0.96ZM298.97 40.02L299.28 40.06L298.97 40.02ZM256.78 10.25C256.35 10.19 255.92 10.12 255.49 10.07C255.38 10.06 255.27 10.06 255.18 10.07C255.09 10.08 255.02 10.09 254.97 10.11C254.93 10.19 255.17 10.24 255.39 10.27C255.67 10.31 255.95 10.34 256.21 10.34C256.47 10.34 256.6 10.29 256.78 10.25L257.13 10.26L256.78 10.25ZM34.13 33.33C34.41 33.34 34.68 33.34 34.92 33.32C36.02 33.24 37.08 33.13 38.21 33.05C39.64 32.88 41.27 32.78 43.05 32.78C43.74 32.78 44.33 32.72 44.75 32.61C45 32.55 45.32 32.51 45.69 32.49L50.41 32.23C50.7 32.19 50.96 32.14 51.17 32.07C50.76 32.01 50.48 31.97 50.32 31.95C49.97 31.95 49.68 31.97 49.46 32.03C49.22 32.11 48.82 32.15 48.34 32.14C47.86 32.13 47.39 32.13 46.93 32.13C46.07 32.15 45.2 32.19 44.33 32.22C43.98 32.44 43 32.36 42.15 32.36L41.49 32.38C39.33 32.54 37.27 32.74 35.31 32.97C34.93 33.01 34.6 33.07 34.34 33.15C34.23 33.21 34.2 33.28 34.23 33.36L34.13 33.33ZM128.75 52.3C129.27 52.3 129.81 52.32 130.37 52.36C130.79 52.39 131.21 52.41 131.6 52.42C133.79 52.42 136.07 52.49 138.4 52.62C138.71 52.64 139 52.64 139.27 52.64L141.19 52.55C141.8 52.52 141.81 52.49 141.39 52.16C141.03 52.1 140.67 52.05 140.3 52C140.08 51.97 139.73 51.92 139.64 51.98C139.12 52.14 138.19 52.06 137.4 52.05C135.13 52.01 132.79 51.94 130.49 51.88C130.01 51.87 129.54 51.87 129.09 51.88C128.81 51.88 128.55 51.89 128.33 51.92C128.27 51.92 128.21 51.93 128.17 51.94C128.16 51.96 128.09 52.03 128.12 52.05C128.14 52.07 128.18 52.09 128.23 52.11C128.41 52.18 128.63 52.25 128.86 52.31L128.75 52.3ZM148.59 2.99L150.84 2.9C151.11 2.89 151.34 2.84 151.63 2.86C153.16 2.89 154.58 2.84 155.84 2.72C156.27 2.67 156.76 2.66 157.3 2.67C158.96 2.7 160.53 2.68 161.96 2.58C162.89 2.55 163.75 2.49 164.55 2.4C164.61 2.38 164.65 2.36 164.67 2.33C164.66 2.31 164.6 2.2 164.56 2.18C164.52 2.16 164.46 2.13 164.4 2.12C164.33 2.1 164.26 2.08 164.18 2.07C164.1 2.06 164.02 2.05 163.94 2.05C162.95 1.97 162 1.95 161.17 2C160.41 2.06 159.59 2.08 158.72 2.08C157.89 2.1 157.32 2.24 156.3 2.16C155.87 2.14 155.49 2.15 155.22 2.21C154.68 2.31 153.93 2.33 153.1 2.27C152.61 2.24 152.14 2.23 151.7 2.25C150.65 2.3 149.64 2.37 148.66 2.45C148.36 2.47 148.03 2.47 147.68 2.47L142.81 2.46C141.64 2.46 140.47 2.44 139.32 2.45C138.38 2.43 137.51 2.46 136.72 2.53C135.89 2.6 134.98 2.65 134.02 2.65C132.52 2.72 131.03 2.76 129.4 2.79C128.36 2.81 127.29 2.82 126.21 2.82C125.66 2.8 125.19 2.83 124.89 2.92C124.71 2.99 124.29 2.95 123.94 2.94C122.09 2.83 120.35 2.83 118.83 2.94C118.64 2.95 118.43 2.96 118.2 2.96C116.75 2.99 115.24 3 113.85 3.03C113.48 3.05 113.13 3.07 112.81 3.1C112.84 3.15 112.94 3.2 113.08 3.24C113.21 3.28 113.39 3.31 113.55 3.32C114.86 3.42 116.13 3.46 117.31 3.44C119.27 3.39 121.31 3.38 123.43 3.43C125.07 3.48 126.57 3.44 127.82 3.28C128.8 3.17 130.06 3.18 131.39 3.31C131.96 3.38 132.51 3.4 132.98 3.37C133.42 3.33 133.94 3.33 134.48 3.35C135.63 3.4 136.74 3.41 137.78 3.39C138.81 3.34 139.76 3.25 140.81 3.21C141.86 3.16 143.46 3.14 144.75 3.08C146.05 3.02 147.33 2.99 148.59 2.99ZM55.83 1.15C55.94 1.34 56.35 1.46 56.8 1.5C58.34 1.7 59.87 1.77 61.13 1.69C61.82 1.61 62.73 1.62 63.67 1.72C64.78 1.82 65.82 1.82 66.61 1.72C66.81 1.7 66.96 1.66 67.05 1.61C67.07 1.58 67.1 1.51 67.11 1.49C67.03 1.46 66.93 1.43 66.82 1.41C66.71 1.39 66.59 1.37 66.47 1.36L61.34 1.24L60.44 1.21C58.81 1.11 57.25 1.09 55.83 1.15ZM65.76 4.06C66.55 4.36 66.55 4.35 66.96 4.42C68.93 4.68 70.9 4.81 72.65 4.78C73.04 4.77 73.37 4.73 73.62 4.67C73.74 4.66 73.82 4.63 73.84 4.59C73.86 4.56 73.82 4.51 73.72 4.47L73.09 4.26C71.94 4.18 70.8 4.13 69.68 4.09C68.38 4.05 67.22 4.07 65.87 4.07L65.76 4.06ZM128.75 50.88C129.47 51.3 129.47 51.3 130.72 51.39C131.59 51.45 132.43 51.48 133.23 51.48C134.2 51.47 135.2 51.48 136.17 51.48C136.4 51.49 136.6 51.47 136.73 51.43C136.86 51.39 136.91 51.34 136.86 51.27C136.74 51.2 136.54 51.14 136.31 51.09C136.07 51.03 135.81 51 135.56 50.99L135.03 50.99C134.39 50.98 133.73 50.96 133.11 50.97C132.7 51 132.24 50.99 131.75 50.96C131.25 50.92 130.75 50.86 130.27 50.77L128.75 50.88ZM69.93 1.44C70.12 1.51 70.34 1.58 70.59 1.65C71.53 1.81 72.53 1.9 73.4 1.89C73.81 1.89 74.19 1.84 74.6 1.89C75.34 1.96 76.07 1.99 76.73 1.98C76.73 1.98 76.92 1.96 76.98 1.95L77.12 1.67C76.81 1.61 76.49 1.57 76.17 1.53C75.08 1.48 74 1.45 72.94 1.42C71.87 1.38 71.5 1.36 70.8 1.35C70.48 1.37 70.19 1.4 69.93 1.44ZM44 36.71L45.39 37.25C45.85 37.29 46.28 37.29 46.62 37.25C46.96 37.21 47.19 37.14 47.27 37.03C47.39 36.98 47.4 36.91 47.31 36.83C47.22 36.75 47.03 36.68 46.77 36.62C46.53 36.54 46.25 36.48 45.96 36.43C45.66 36.37 45.35 36.34 45.05 36.31L44 36.71ZM56.1 33.62C55.17 33.54 54.28 33.52 53.49 33.55C52.99 33.62 52.32 33.61 51.62 33.54C50.34 33.39 49.1 33.36 48.15 33.47C48.15 33.47 48.12 33.55 47.96 33.57C47.8 33.6 48.42 33.64 48.56 33.66C49.57 33.69 50.58 33.72 51.47 33.72C52.01 33.71 52.59 33.71 53.19 33.74C54.01 33.78 54.79 33.78 55.51 33.74C55.51 33.74 55.78 33.72 56.1 33.62ZM158.03 1.76C157.6 1.66 157.12 1.58 156.63 1.53C156.15 1.48 155.68 1.46 155.25 1.46C154.92 1.47 154.65 1.5 154.49 1.56C154.33 1.62 154.27 1.71 154.34 1.8C154.67 1.85 155.11 1.91 155.35 1.95C156.22 1.93 156.96 1.86 158.03 1.76ZM241.19 9.16C240.83 9.08 240.44 9.02 240.06 8.99C239.67 8.96 239.31 8.95 239.01 8.98C238.86 9 238.96 9.09 238.93 9.15C238.97 9.17 239.12 9.28 239.18 9.29C239.25 9.3 239.31 9.31 239.37 9.31C239.76 9.34 240.13 9.34 240.44 9.32C240.76 9.3 241.02 9.22 241.19 9.16ZM246.72 10.28C246.66 10.23 246.55 10.18 246.39 10.14C246.24 10.1 246.05 10.07 245.87 10.05C245.54 10.06 245.24 10.08 244.98 10.11C244.7 10.14 244.9 10.28 245.27 10.36C245.42 10.4 245.59 10.42 245.76 10.44C245.92 10.45 246.08 10.45 246.22 10.45C246.36 10.44 246.48 10.42 246.56 10.4C246.65 10.37 246.71 10.32 246.72 10.28ZM84.46 1.69C83.63 1.52 82.98 1.58 82.28 1.52C81.58 1.47 81.4 1.46 81.49 1.58C81.58 1.69 82.06 1.66 82.37 1.7C82.77 1.76 83.18 1.79 83.55 1.79C83.92 1.78 84.24 1.75 84.46 1.69ZM256.89 29.14C256.45 29.11 256.01 29.09 255.6 29.08C255.54 29.1 255.51 29.12 255.49 29.15C255.49 29.15 255.8 29.32 255.96 29.34C256.57 29.42 256.6 29.29 256.89 29.14ZM318.45 44.93C318.75 45.05 318.88 45.13 319.12 45.18C319.23 45.2 319.34 45.21 319.45 45.22C319.56 45.22 319.66 45.22 319.75 45.22C319.85 45.18 319.88 45.12 319.82 45.06C319.82 45.06 319.53 44.96 319.41 44.95C319.08 44.93 318.76 44.93 318.45 44.93ZM70.28 0.93C69.65 0.84 69.04 0.76 68.6 0.89C69.6 0.99 69.6 0.99 70.28 0.93ZM80.5 1.9C79.87 1.69 79.5 1.68 79.19 1.71C79.12 1.72 79.08 1.73 79.06 1.75C79.1 1.78 79.21 1.87 79.29 1.89C79.37 1.91 79.46 1.92 79.55 1.93C79.88 1.93 80.2 1.92 80.5 1.9ZM113.55 1.32C113.57 1.29 113.59 1.25 113.42 1.23C113.38 1.22 113.33 1.2 113.28 1.2C113.23 1.19 113.17 1.19 113.12 1.18L113.55 1.32ZM133.11 53.65L132.74 53.69L132.9 53.71L133.34 53.72L133.11 53.65ZM265.85 9.4C265.72 9.38 265.58 9.36 265.56 9.41C265.56 9.41 265.71 9.5 265.79 9.52L265.85 9.4ZM244.3 10.19C244.21 10.19 244.12 10.2 244.05 10.21L244.3 10.19ZM56.05 23.08C55.94 23.06 55.83 23.04 55.72 23.03L55.58 23.01C55.58 23.01 55.64 23.02 55.72 23.03C55.8 23.05 55.96 23.08 56.05 23.08Z" fill="#DF6951" fill-opacity="1.000000" fill-rule="nonzero"/>
		<path id="Vector" d="" fill="#707070" fill-opacity="0" fill-rule="evenodd"/>
	</g>
</svg>
