<svg width="97.000000" height="253.000000" viewBox="0 0 97 253" fill="none" xmlns="http://www.w3.org/2000/svg" xmlns:xlink="http://www.w3.org/1999/xlink">
	<desc>
			Created with Pixso.
	</desc>
	<defs/>
	<path id="Decore" d="M18.49 112.23C5.11 112.77 -14.13 106.39 15.98 76.57C25.52 71.96 48.61 62.62 64.67 62.2C73.87 64.15 91.57 73.8 88.76 96.8C89.1 101.41 82.84 112.87 55.13 121.81C48.78 123.23 34.55 126.18 28.53 126.6L6.95 129.8L18.49 112.23Z" fill="#000000" fill-opacity="0" fill-rule="nonzero"/>
	<path id="Decore" d="M7.95 13.23C14.98 4.71 32.75 -8.38 47.6 7.37C62.46 23.13 42.42 52.62 30.54 65.39C24.68 68.94 12.47 74.97 10.46 70.72C7.95 65.39 6.45 54.21 27.03 44.63C40.24 38.96 68.79 32.92 77.22 54.21C81.07 63.44 81.73 84.87 53.63 96.8L18.49 112.23M28.53 177.7C38.57 185.79 60.15 187.11 69.69 186.75C95.39 182.49 94.12 161.2 90.27 151.09C83.04 133.63 46.1 126.07 28.53 124.48L27.53 86.68C32.35 84.98 51.62 83.84 60.65 83.49C98 85.62 97.63 110.99 92.78 123.41C82.74 140.87 45.76 142.04 28.53 140.44L28.53 160.14C33.22 162.44 48.51 166.53 72.2 164.4C95.89 162.27 97.46 140.44 95.29 129.8C82.74 109.04 76.47 112.23 60.65 108.51C48 105.53 27.28 109.75 18.49 112.23C5.11 112.77 -14.13 106.39 15.98 76.57C25.52 71.96 48.61 62.62 64.67 62.2C73.87 64.15 91.57 73.8 88.76 96.8C89.1 101.41 82.84 112.87 55.13 121.81C48.78 123.23 34.55 126.18 28.53 126.6L6.95 129.8L18.49 112.23M28.53 140.44L28.53 177.7L30.54 198.46L28.53 246.37C36.16 252.33 46.1 252.4 50.11 251.69C65.77 248.71 68.02 230.22 67.18 221.35C65.17 206.87 40.58 186.22 28.53 177.7M28.53 140.44C39.41 143.11 63.36 150.45 72.2 158.54C82.91 167.41 98.6 189.41 75.71 206.45C68.52 209.11 49.41 211.24 30.54 198.46" stroke="#84829A" stroke-opacity="1.000000" stroke-width="1.000000"/>
</svg>
