<svg width="100.000000" height="100.000000" viewBox="0 0 100 100" fill="none" xmlns="http://www.w3.org/2000/svg" xmlns:xlink="http://www.w3.org/1999/xlink">
	<desc>
			Created with Pixso.
	</desc>
	<defs/>
	<path id="Rectangle 157" d="M30 0L100 0L100 90C100 95.52 95.52 100 90 100L0 100L0 30C0 13.43 13.43 0 30 0Z" fill="#DF6951" fill-opacity="1.000000" fill-rule="evenodd"/>
	<path id="Rectangle 157" d="M100 0L100 90C100 95.52 95.52 100 90 100L0 100L0 30C0 13.43 13.43 0 30 0L100 0ZM99 1L99 90C99 94.97 94.97 99 90 99L1 99L1 30C1 13.98 13.98 1 30 1L99 1Z" fill="#707070" fill-opacity="0" fill-rule="evenodd"/>
</svg>
