<svg width="17.000000" height="17.000000" viewBox="0 0 17 17" fill="none" xmlns="http://www.w3.org/2000/svg" xmlns:xlink="http://www.w3.org/1999/xlink">
	<desc>
			Created with Pixso.
	</desc>
	<defs/>
	<path id="Vector" d="M16.06 0.76L9.19 15.76C9.13 15.88 9.03 15.98 8.91 16.05C8.79 16.11 8.65 16.13 8.51 16.11C8.38 16.09 8.25 16.02 8.16 15.92C8.07 15.81 8.01 15.68 8 15.55L7.42 8.57L0.44 7.99C0.31 7.98 0.18 7.92 0.07 7.83C-0.03 7.74 -0.1 7.61 -0.12 7.48C-0.14 7.34 -0.12 7.2 -0.06 7.08C0.01 6.96 0.11 6.86 0.23 6.8L15.23 -0.07C15.35 -0.13 15.48 -0.14 15.61 -0.12C15.73 -0.1 15.85 -0.04 15.94 0.05C16.03 0.14 16.09 0.26 16.11 0.38C16.13 0.51 16.12 0.64 16.06 0.76Z" fill="#080809" fill-opacity="1.000000" fill-rule="nonzero"/>
	<path id="Vector" d="" fill="#707070" fill-opacity="0" fill-rule="evenodd"/>
</svg>
