<svg width="115.000000" height="34.000000" viewBox="0 0 115 34" fill="none" xmlns="http://www.w3.org/2000/svg" xmlns:xlink="http://www.w3.org/1999/xlink">
	<desc>
			Created with Pixso.
	</desc>
	<defs/>
	<path id="Rectangle 24" d="M74 28L83.5 31L91.5 23L101.5 30L112 28L107.5 13.5L91.5 18.5L82.5 13.5L73 15L74 28Z" fill="#F1A501" fill-opacity="1.000000" fill-rule="nonzero"/>
	<path id="Rectangle 24" d="" fill="#707070" fill-opacity="0" fill-rule="evenodd"/>
	<path id="Jadoo" d="M-0.09 23.06L-0.09 20.9L6.03 19.79L6.03 22.78C6.06 24.41 6.48 25.64 7.27 26.46C8.1 27.26 9.19 27.66 10.54 27.66C11.86 27.66 12.9 27.23 13.67 26.37C14.47 25.51 14.87 24.36 14.87 22.92L14.87 0.38L21.21 0.38L21.21 22.92C21.21 25.93 20.22 28.47 18.22 30.56C16.23 32.64 13.68 33.68 10.59 33.68C7.37 33.68 4.78 32.72 2.81 30.79C0.88 28.82 -0.09 26.25 -0.09 23.06Z" fill="#000000" fill-opacity="1.000000" fill-rule="nonzero"/>
	<path id="Jadoo" d="" fill="#707070" fill-opacity="0" fill-rule="evenodd"/>
	<path id="Jadoo" d="M22.67 26.83C22.67 24.9 23.3 23.35 24.56 22.19C25.82 21.02 27.44 20.28 29.43 19.98L35 19.15C36.13 19 36.7 18.46 36.7 17.54C36.7 16.68 36.36 15.98 35.69 15.42C35.05 14.87 34.11 14.6 32.88 14.6C31.6 14.6 30.57 14.95 29.8 15.65C29.07 16.36 28.65 17.23 28.56 18.28L23.13 17.12C23.35 15.16 24.31 13.43 26.03 11.93C27.75 10.42 30.02 9.67 32.84 9.67C36.21 9.67 38.7 10.49 40.29 12.11C41.88 13.71 42.68 15.76 42.68 18.28L42.68 29.41C42.68 30.76 42.77 31.95 42.96 33L37.35 33C37.19 32.32 37.12 31.42 37.12 30.28C35.67 32.52 33.45 33.64 30.45 33.64C28.12 33.64 26.23 32.96 24.79 31.62C23.38 30.27 22.67 28.67 22.67 26.83ZM31.73 29.09C33.18 29.09 34.36 28.69 35.28 27.89C36.23 27.06 36.7 25.71 36.7 23.84L36.7 22.83L31.6 23.61C29.73 23.89 28.79 24.84 28.79 26.46C28.79 27.2 29.05 27.83 29.57 28.35C30.09 28.84 30.81 29.09 31.73 29.09Z" fill="#000000" fill-opacity="1.000000" fill-rule="nonzero"/>
	<path id="Jadoo" d="" fill="#707070" fill-opacity="0" fill-rule="evenodd"/>
	<path id="Jadoo" d="M66.65 -0.31L66.65 28.9C66.65 30.4 66.71 31.77 66.84 33L60.99 33C60.84 32.23 60.76 31.35 60.76 30.37C60.24 31.32 59.42 32.09 58.28 32.67C57.18 33.26 55.89 33.55 54.42 33.55C51.2 33.55 48.54 32.43 46.46 30.19C44.4 27.92 43.38 25.07 43.38 21.63C43.38 18.29 44.39 15.48 46.41 13.22C48.47 10.95 51.07 9.81 54.23 9.81C57.48 9.81 59.61 10.75 60.63 12.62L60.63 -0.31L66.65 -0.31ZM49.54 21.63C49.54 23.63 50.06 25.21 51.1 26.37C52.15 27.51 53.5 28.07 55.15 28.07C56.78 28.07 58.11 27.49 59.15 26.33C60.2 25.16 60.72 23.58 60.72 21.59C60.72 19.62 60.2 18.09 59.15 16.99C58.11 15.85 56.78 15.29 55.15 15.29C53.53 15.29 52.18 15.85 51.1 16.99C50.06 18.12 49.54 19.67 49.54 21.63Z" fill="#000000" fill-opacity="1.000000" fill-rule="nonzero"/>
	<path id="Jadoo" d="" fill="#707070" fill-opacity="0" fill-rule="evenodd"/>
	<path id="Jadoo" d="M75.68 26.42C76.82 27.55 78.18 28.12 79.78 28.12C81.37 28.12 82.72 27.55 83.82 26.42C84.96 25.28 85.53 23.7 85.53 21.68C85.53 19.66 84.96 18.08 83.82 16.94C82.72 15.81 81.37 15.24 79.78 15.24C78.18 15.24 76.82 15.81 75.68 16.94C74.58 18.08 74.03 19.66 74.03 21.68C74.03 23.7 74.58 25.28 75.68 26.42ZM71.27 13.08C73.54 10.81 76.37 9.67 79.78 9.67C83.18 9.67 86 10.81 88.24 13.08C90.51 15.35 91.64 18.21 91.64 21.68C91.64 25.14 90.51 28.01 88.24 30.28C86 32.55 83.18 33.68 79.78 33.68C76.37 33.68 73.54 32.55 71.27 30.28C69.03 28.01 67.91 25.14 67.91 21.68C67.91 18.21 69.03 15.35 71.27 13.08Z" fill="#000000" fill-opacity="1.000000" fill-rule="nonzero"/>
	<path id="Jadoo" d="" fill="#707070" fill-opacity="0" fill-rule="evenodd"/>
	<path id="Jadoo" d="M98.86 26.42C100 27.55 101.36 28.12 102.96 28.12C104.55 28.12 105.9 27.55 107.01 26.42C108.14 25.28 108.71 23.7 108.71 21.68C108.71 19.66 108.14 18.08 107.01 16.94C105.9 15.81 104.55 15.24 102.96 15.24C101.36 15.24 100 15.81 98.86 16.94C97.76 18.08 97.21 19.66 97.21 21.68C97.21 23.7 97.76 25.28 98.86 26.42ZM94.45 13.08C96.72 10.81 99.55 9.67 102.96 9.67C106.36 9.67 109.18 10.81 111.42 13.08C113.69 15.35 114.83 18.21 114.83 21.68C114.83 25.14 113.69 28.01 111.42 30.28C109.18 32.55 106.36 33.68 102.96 33.68C99.55 33.68 96.72 32.55 94.45 30.28C92.21 28.01 91.09 25.14 91.09 21.68C91.09 18.21 92.21 15.35 94.45 13.08Z" fill="#000000" fill-opacity="1.000000" fill-rule="nonzero"/>
	<path id="Jadoo" d="" fill="#707070" fill-opacity="0" fill-rule="evenodd"/>
</svg>
