<svg width="113.000000" height="72.000000" viewBox="0 0 113 72" fill="none" xmlns="http://www.w3.org/2000/svg" xmlns:xlink="http://www.w3.org/1999/xlink">
	<desc>
			Created with Pixso.
	</desc>
	<defs/>
	<path id="Vector" d="M71.38 36.94C70.03 37.24 68.7 37.8 67.5 38.59C64.36 40.59 62.53 43.45 63.42 44.97C64.3 46.49 67.57 46.1 70.71 44.1C71.93 43.34 73.02 42.37 73.9 41.25C74.31 40.71 74.38 40.03 74.09 39.53L72.93 37.55C72.64 37.04 72.03 36.8 71.38 36.94Z" fill="#D5D6DB" fill-opacity="1.000000" fill-rule="nonzero"/>
	<path id="Vector" d="" fill="#707070" fill-opacity="0" fill-rule="evenodd"/>
	<path id="Vector" d="M63.5 9.94C62.51 10.16 61.55 10.57 60.68 11.14C58.4 12.59 57.08 14.67 57.72 15.77C58.36 16.87 60.73 16.59 63.01 15.14C63.89 14.59 64.68 13.88 65.32 13.07C65.62 12.68 65.67 12.19 65.45 11.82L64.62 10.39C64.41 10.02 63.97 9.85 63.5 9.94Z" fill="#D5D6DB" fill-opacity="1.000000" fill-rule="nonzero"/>
	<path id="Vector" d="" fill="#707070" fill-opacity="0" fill-rule="evenodd"/>
	<path id="Vector" d="M50.68 11.07C50.46 11.05 50.23 11.11 50.03 11.24L44.68 14.65C44.23 14.93 44.05 15.48 44.28 15.87C44.33 15.96 44.4 16.03 44.49 16.09L57.67 25.18L75.5 13.81L50.68 11.07Z" fill="#029BC5" fill-opacity="1.000000" fill-rule="nonzero"/>
	<path id="Vector" d="" fill="#707070" fill-opacity="0" fill-rule="evenodd"/>
	<path id="Vector" d="M107.06 9.79L58.53 40.34L29.82 51.77L15.17 54.68L13.56 51.94L94.46 1.99C96.87 0.5 99.55 -0.42 102.24 -0.67C103.42 -0.77 104.58 -0.73 105.7 -0.55C106.7 -0.4 107.64 -0.11 108.5 0.31C109.47 0.79 111.3 0.85 111.9 1.8C111.9 1.8 113.3 6.17 107.06 9.79Z" fill="#E1E6E9" fill-opacity="1.000000" fill-rule="nonzero"/>
	<path id="Vector" d="" fill="#707070" fill-opacity="0" fill-rule="evenodd"/>
	<path id="Vector" d="M59.17 36.3L38.18 69.77C37.91 70.24 38.07 70.77 38.52 70.94C38.8 71.05 39.14 71.01 39.43 70.83L44.77 67.44C45.8 66.79 46.71 65.96 47.45 65L88.16 17.14L59.17 36.3Z" fill="#029BC5" fill-opacity="1.000000" fill-rule="nonzero"/>
	<path id="Vector" d="" fill="#707070" fill-opacity="0" fill-rule="evenodd"/>
	<path id="Vector" d="M6.19 35.18C5.84 35.06 5.42 35.12 5.07 35.35L0.66 38.16C0.05 38.54 -0.19 39.28 0.12 39.81C0.18 39.91 0.25 39.99 0.34 40.07L12.72 49.98L25.73 41.85L6.19 35.18Z" fill="#029BC5" fill-opacity="1.000000" fill-rule="nonzero"/>
	<path id="Vector" d="" fill="#707070" fill-opacity="0" fill-rule="evenodd"/>
	<path id="Vector" d="M16.87 51.77L10.21 61.1C10.11 61.23 10.13 61.4 10.26 61.47C10.35 61.52 10.47 61.51 10.57 61.45L14.7 58.83L24.52 46.92L16.87 51.77Z" fill="#029BC5" fill-opacity="1.000000" fill-rule="nonzero"/>
	<path id="Vector" d="" fill="#707070" fill-opacity="0" fill-rule="evenodd"/>
	<path id="Vector" d="M104.91 -0.15C103.75 -0.33 102.55 -0.37 101.34 -0.27C100.16 1.38 99.41 3.24 99.15 5.11C99.13 5.49 99.44 5.76 99.83 5.72C99.95 5.7 100.07 5.66 100.18 5.59L107.79 0.75C106.9 0.31 105.93 0.01 104.91 -0.15Z" fill="#029BC5" fill-opacity="1.000000" fill-rule="nonzero"/>
	<path id="Vector" d="" fill="#707070" fill-opacity="0" fill-rule="evenodd"/>
	<path id="Vector" d="M88.33 8.76L93.29 5.62L97.92 13.49L92.95 16.63L88.33 8.76Z" fill="#D5D6DB" fill-opacity="1.000000" fill-rule="nonzero"/>
	<path id="Vector" d="" fill="#707070" fill-opacity="0" fill-rule="evenodd"/>
	<path id="Vector" d="M85.2 11.87C84.6 12.25 84.36 12.98 84.67 13.5L85.16 14.34C85.48 14.85 86.22 14.94 86.81 14.54C87.37 14.16 87.6 13.48 87.33 12.97L86.83 12.13C86.53 11.61 85.8 11.49 85.2 11.87Z" fill="#3A556A" fill-opacity="1.000000" fill-rule="nonzero"/>
	<path id="Vector" d="" fill="#707070" fill-opacity="0" fill-rule="evenodd"/>
	<path id="Vector" d="M80.74 14.65C80.14 15.02 79.9 15.75 80.2 16.27L80.7 17.11C81.02 17.62 81.76 17.71 82.35 17.31C82.91 16.94 83.13 16.25 82.86 15.74L82.37 14.9C82.07 14.38 81.34 14.27 80.74 14.65Z" fill="#3A556A" fill-opacity="1.000000" fill-rule="nonzero"/>
	<path id="Vector" d="" fill="#707070" fill-opacity="0" fill-rule="evenodd"/>
	<path id="Vector" d="M76.27 17.42C75.67 17.8 75.44 18.53 75.74 19.05L76.23 19.89C76.55 20.39 77.29 20.48 77.88 20.09C78.44 19.71 78.67 19.02 78.4 18.51L77.91 17.67C77.6 17.15 76.87 17.04 76.27 17.42Z" fill="#3A556A" fill-opacity="1.000000" fill-rule="nonzero"/>
	<path id="Vector" d="" fill="#707070" fill-opacity="0" fill-rule="evenodd"/>
	<path id="Vector" d="M71.81 20.19C71.21 20.57 70.97 21.3 71.27 21.82L71.77 22.66C72.09 23.17 72.83 23.26 73.42 22.86C73.98 22.48 74.2 21.79 73.93 21.29L73.44 20.45C73.14 19.93 72.41 19.81 71.81 20.19Z" fill="#3A556A" fill-opacity="1.000000" fill-rule="nonzero"/>
	<path id="Vector" d="" fill="#707070" fill-opacity="0" fill-rule="evenodd"/>
	<path id="Vector" d="M67.34 22.96C66.74 23.34 66.51 24.07 66.81 24.59L67.3 25.43C67.61 25.95 68.34 26.07 68.94 25.69C69.53 25.31 69.77 24.58 69.47 24.06L68.98 23.22C68.67 22.7 67.94 22.59 67.34 22.96Z" fill="#3A556A" fill-opacity="1.000000" fill-rule="nonzero"/>
	<path id="Vector" d="" fill="#707070" fill-opacity="0" fill-rule="evenodd"/>
	<path id="Vector" d="M62.88 25.74C62.28 26.12 62.04 26.84 62.35 27.36L62.84 28.21C63.14 28.73 63.87 28.84 64.47 28.46C65.07 28.08 65.31 27.35 65.01 26.83L64.51 25.99C64.21 25.47 63.48 25.36 62.88 25.74Z" fill="#3A556A" fill-opacity="1.000000" fill-rule="nonzero"/>
	<path id="Vector" d="" fill="#707070" fill-opacity="0" fill-rule="evenodd"/>
	<path id="Vector" d="M58.41 28.51C57.82 28.89 57.58 29.62 57.88 30.14L58.37 30.98C58.68 31.5 59.41 31.61 60.01 31.23C60.6 30.85 60.84 30.12 60.54 29.61L60.05 28.76C59.74 28.24 59.01 28.13 58.41 28.51Z" fill="#3A556A" fill-opacity="1.000000" fill-rule="nonzero"/>
	<path id="Vector" d="" fill="#707070" fill-opacity="0" fill-rule="evenodd"/>
	<path id="Vector" d="M53.95 31.28C53.35 31.66 53.11 32.39 53.42 32.91L53.91 33.75C54.21 34.27 54.95 34.38 55.54 34C56.14 33.62 56.38 32.9 56.08 32.38L55.58 31.54C55.28 31.02 54.55 30.9 53.95 31.28Z" fill="#3A556A" fill-opacity="1.000000" fill-rule="nonzero"/>
	<path id="Vector" d="" fill="#707070" fill-opacity="0" fill-rule="evenodd"/>
	<path id="Vector" d="M49.49 34.05C48.89 34.43 48.65 35.16 48.95 35.68L49.44 36.52C49.75 37.04 50.48 37.15 51.08 36.78C51.68 36.4 51.91 35.67 51.61 35.15L51.12 34.31C50.82 33.79 50.08 33.67 49.49 34.05Z" fill="#3A556A" fill-opacity="1.000000" fill-rule="nonzero"/>
	<path id="Vector" d="" fill="#707070" fill-opacity="0" fill-rule="evenodd"/>
	<path id="Vector" d="M45.02 36.83C44.42 37.21 44.18 37.93 44.49 38.45L44.98 39.3C45.28 39.82 46.02 39.93 46.61 39.55C47.21 39.17 47.45 38.44 47.15 37.92L46.65 37.08C46.35 36.56 45.62 36.45 45.02 36.83Z" fill="#3A556A" fill-opacity="1.000000" fill-rule="nonzero"/>
	<path id="Vector" d="" fill="#707070" fill-opacity="0" fill-rule="evenodd"/>
	<path id="Vector" d="M40.56 39.6C39.96 39.98 39.72 40.71 40.02 41.22L40.52 42.07C40.82 42.59 41.55 42.7 42.15 42.32C42.75 41.94 42.98 41.21 42.68 40.7L42.19 39.85C41.89 39.33 41.15 39.22 40.56 39.6Z" fill="#3A556A" fill-opacity="1.000000" fill-rule="nonzero"/>
	<path id="Vector" d="" fill="#707070" fill-opacity="0" fill-rule="evenodd"/>
</svg>
