<svg width="67.000000" height="70.000000" viewBox="0 0 67 70" fill="none" xmlns="http://www.w3.org/2000/svg" xmlns:xlink="http://www.w3.org/1999/xlink">
	<desc>
			Created with Pixso.
	</desc>
	<defs/>
	<path id="Vector" d="M23.52 50.65L21.63 49.75L10.42 66.33L22.94 66.33L24.14 65.55L24.14 51.22L23.52 50.65Z" fill="#407093" fill-opacity="1.000000" fill-rule="nonzero"/>
	<path id="Vector" d="" fill="#707070" fill-opacity="0" fill-rule="evenodd"/>
	<path id="Vector" d="M21.8 49.83L17.56 47.8L16.76 47.8L4.76 65.55L5.47 66.33L10.64 66.33L21.8 49.83Z" fill="#365E7D" fill-opacity="1.000000" fill-rule="nonzero"/>
	<path id="Vector" d="" fill="#707070" fill-opacity="0" fill-rule="evenodd"/>
	<path id="Vector" d="M26.4 65.55L9.84 65.55C9.09 65.55 8.48 66.16 8.48 66.91L8.48 68.63C8.48 69.39 9.09 69.99 9.84 70L26.4 70C27.15 70 27.76 69.39 27.76 68.63L27.76 66.91C27.76 66.16 27.15 65.55 26.4 65.55Z" fill="#4A80AA" fill-opacity="1.000000" fill-rule="nonzero"/>
	<path id="Vector" d="" fill="#707070" fill-opacity="0" fill-rule="evenodd"/>
	<path id="Vector" d="M8.76 68.63L8.76 66.91C8.76 66.16 9.37 65.55 10.12 65.55L1.36 65.55C0.6 65.55 0 66.16 0 66.91L0 68.63C0 69.39 0.6 70 1.36 70L10.12 70C9.37 70 8.76 69.39 8.76 68.63Z" fill="#407093" fill-opacity="1.000000" fill-rule="nonzero"/>
	<path id="Vector" d="" fill="#707070" fill-opacity="0" fill-rule="evenodd"/>
	<path id="Vector" d="M21.23 39.98C20.73 41.03 20.44 42.21 20.44 43.45C20.44 46.86 22.57 49.77 25.57 50.92C26.86 50.51 28.01 49.78 28.91 48.83L28.91 47.08L21.23 39.98Z" fill="#4A80AA" fill-opacity="1.000000" fill-rule="nonzero"/>
	<path id="Vector" d="" fill="#707070" fill-opacity="0" fill-rule="evenodd"/>
	<path id="Vector" d="M20.57 43.48C20.57 42.26 20.85 41.11 21.35 40.09L18.9 37.81L17.9 37.81C16.4 39.23 15.45 41.25 15.45 43.48C15.45 47.78 18.94 51.27 23.25 51.27C24.14 51.27 25 51.12 25.8 50.84C22.76 49.78 20.57 46.89 20.57 43.48Z" fill="#407093" fill-opacity="1.000000" fill-rule="nonzero"/>
	<path id="Vector" d="" fill="#707070" fill-opacity="0" fill-rule="evenodd"/>
	<path id="Vector" d="M65.81 0.92C64.57 -0.31 62.58 -0.31 61.34 0.92L58.33 3.93L58.33 4.31L62.09 8.23L62.79 8.4L65.81 5.38C67.04 4.15 67.04 2.15 65.81 0.92Z" fill="#FFD086" fill-opacity="1.000000" fill-rule="nonzero"/>
	<path id="Vector" d="" fill="#707070" fill-opacity="0" fill-rule="evenodd"/>
	<path id="Vector" d="M66.64 2.41C66.51 1.86 66.23 1.35 65.81 0.92C64.57 -0.31 62.58 -0.31 61.34 0.92L58.33 3.93L58.33 4.31L60.32 6.39C61.51 5.16 62.69 3.94 63.3 3.33C64.31 2.32 65.79 2.31 66.64 2.41Z" fill="#FFC365" fill-opacity="1.000000" fill-rule="nonzero"/>
	<path id="Vector" d="" fill="#707070" fill-opacity="0" fill-rule="evenodd"/>
	<path id="Vector" d="M55.49 8.95C55.46 8.95 55.42 8.94 55.39 8.94L20.57 5.51C19.99 5.46 19.57 4.94 19.62 4.36C19.68 3.78 20.2 3.35 20.78 3.41L55.59 6.84C56.18 6.89 56.6 7.41 56.54 7.99C56.49 8.54 56.03 8.95 55.49 8.95Z" fill="#365E7D" fill-opacity="1.000000" fill-rule="nonzero"/>
	<path id="Vector" d="" fill="#707070" fill-opacity="0" fill-rule="evenodd"/>
	<path id="Vector" d="M30.64 15.46C30.17 15.46 29.74 15.15 29.62 14.67C29.47 14.11 29.81 13.53 30.37 13.38L55.22 6.87C55.79 6.72 56.37 7.06 56.51 7.62C56.66 8.18 56.32 8.76 55.76 8.91L30.91 15.43C30.82 15.45 30.73 15.46 30.64 15.46Z" fill="#407093" fill-opacity="1.000000" fill-rule="nonzero"/>
	<path id="Vector" d="" fill="#707070" fill-opacity="0" fill-rule="evenodd"/>
	<path id="Vector" d="M62.24 47.13C61.7 47.13 61.24 46.72 61.19 46.18L57.79 11.34C57.73 10.76 58.15 10.24 58.73 10.19C59.31 10.13 59.83 10.55 59.89 11.13L63.29 45.97C63.35 46.55 62.93 47.07 62.35 47.13C62.31 47.13 62.28 47.13 62.24 47.13Z" fill="#365E7D" fill-opacity="1.000000" fill-rule="nonzero"/>
	<path id="Vector" d="" fill="#707070" fill-opacity="0" fill-rule="evenodd"/>
	<path id="Vector" d="M52.22 37.24C52.13 37.24 52.04 37.23 51.95 37.21C51.38 37.06 51.05 36.48 51.2 35.92L57.81 10.97C57.96 10.41 58.54 10.07 59.1 10.22C59.67 10.37 60 10.95 59.85 11.51L53.24 36.46C53.12 36.93 52.69 37.24 52.22 37.24Z" fill="#407093" fill-opacity="1.000000" fill-rule="nonzero"/>
	<path id="Vector" d="" fill="#707070" fill-opacity="0" fill-rule="evenodd"/>
	<path id="Vector" d="M55.3 6.96L58.32 3.94L62.79 8.4L59.77 11.42L55.3 6.96Z" fill="#FFC365" fill-opacity="1.000000" fill-rule="nonzero"/>
	<path id="Vector" d="" fill="#707070" fill-opacity="0" fill-rule="evenodd"/>
	<path id="Vector" d="M57.6 9.24C58.32 8.48 59.46 7.29 60.55 6.16L58.33 3.93L55.31 6.95L57.6 9.24Z" fill="#FFA90F" fill-opacity="1.000000" fill-rule="nonzero"/>
	<path id="Vector" d="" fill="#707070" fill-opacity="0" fill-rule="evenodd"/>
	<path id="Vector" d="M60.45 13.15C60.18 13.15 59.91 13.04 59.7 12.84L53.89 7.03C53.48 6.62 53.48 5.95 53.89 5.53C54.3 5.12 54.97 5.12 55.38 5.53L61.19 11.34C61.61 11.76 61.61 12.42 61.19 12.84C60.99 13.04 60.72 13.15 60.45 13.15Z" fill="#4A80AA" fill-opacity="1.000000" fill-rule="nonzero"/>
	<path id="Vector" d="" fill="#707070" fill-opacity="0" fill-rule="evenodd"/>
	<path id="Vector" d="M61.13 49.03L25.76 13.36C21.07 23.94 20.25 35.31 23.76 45.11C33.46 53.85 47.94 55.2 61.28 49.7L61.13 49.03Z" fill="#B5DCFF" fill-opacity="1.000000" fill-rule="nonzero"/>
	<path id="Vector" d="" fill="#707070" fill-opacity="0" fill-rule="evenodd"/>
	<path id="Vector" d="M25.95 13.55L17.84 5.37L17.03 5.45C11.32 19.3 12.99 34.39 22.66 44.06C23.25 44.65 23.86 45.21 24.48 45.73C20.4 35.94 21.06 24.3 25.95 13.55Z" fill="#8BCAFF" fill-opacity="1.000000" fill-rule="nonzero"/>
	<path id="Vector" d="" fill="#707070" fill-opacity="0" fill-rule="evenodd"/>
	<path id="Vector" d="M64.36 46.5L28.49 10.62C28.13 10.68 27.79 10.84 27.52 11.11L25.96 12.67C25.63 13.01 25.46 13.44 25.46 13.88L61.21 49.64C61.75 50.17 62.61 50.17 63.14 49.64L64.36 48.42C64.89 47.89 64.89 47.03 64.36 46.5Z" fill="#DBEDFF" fill-opacity="1.000000" fill-rule="nonzero"/>
	<path id="Vector" d="" fill="#707070" fill-opacity="0" fill-rule="evenodd"/>
	<path id="Vector" d="M26.02 12.7L27.54 11.17C27.82 10.89 28.18 10.73 28.55 10.68L20.23 2.37C19.7 1.84 18.84 1.84 18.3 2.37L17.08 3.59C16.55 4.12 16.55 4.98 17.08 5.51L25.52 13.95C25.51 13.5 25.67 13.04 26.02 12.7Z" fill="#B5DCFF" fill-opacity="1.000000" fill-rule="nonzero"/>
	<path id="Vector" d="" fill="#707070" fill-opacity="0" fill-rule="evenodd"/>
</svg>
