<svg width="47.000000" height="48.000000" viewBox="0 0 47 48" fill="none" xmlns="http://www.w3.org/2000/svg" xmlns:xlink="http://www.w3.org/1999/xlink">
	<desc>
			Created with Pixso.
	</desc>
	<defs/>
	<rect id="Rectangle 21" rx="13.000000" width="47.000000" height="48.000000" fill="#F0BB1F" fill-opacity="1.000000"/>
	<rect id="Rectangle 21" x="0.500000" y="0.500000" rx="13.000000" width="46.000000" height="47.000000" stroke="#707070" stroke-opacity="0" stroke-width="1.000000"/>
	<path id="Vector" d="M13.54 17.47C13.24 17.47 13 17.23 13 16.93L13 13.54C13 13.24 13.24 13 13.54 13L16.93 13C17.23 13 17.47 13.24 17.47 13.54L17.47 14.72L30.52 14.72L30.52 13.54C30.52 13.24 30.76 13 31.06 13L34.45 13C34.75 13 34.99 13.24 35 13.54L35 16.93C35 17.23 34.75 17.47 34.45 17.47L33.27 17.47L33.27 30.52L34.45 30.52C34.75 30.52 34.99 30.76 35 31.06L35 34.45C35 34.75 34.75 34.99 34.45 35L31.06 35C30.76 35 30.52 34.75 30.52 34.45L30.52 33.27L17.47 33.27L17.47 34.45C17.47 34.75 17.23 34.99 16.93 35L13.54 35C13.24 35 13 34.75 13 34.45L13 31.06C13 30.76 13.24 30.52 13.54 30.52L14.72 30.52L14.72 17.47L13.54 17.47ZM33.92 16.39L33.92 14.07L31.6 14.07L31.6 16.39L33.92 16.39ZM31.6 33.92L33.92 33.92L33.92 31.6L31.6 31.6L31.6 33.92ZM17.47 31.06L17.47 32.19L30.52 32.19L30.52 31.06C30.52 30.76 30.76 30.52 31.06 30.52L32.19 30.52L32.19 17.47L31.06 17.47C30.76 17.47 30.52 17.23 30.52 16.93L30.52 15.8L17.47 15.8L17.47 16.93C17.47 17.23 17.23 17.47 16.93 17.47L15.8 17.47L15.8 30.52L16.93 30.52C17.23 30.52 17.47 30.76 17.47 31.06ZM14.07 31.6L14.07 33.92L16.39 33.92L16.39 31.6L14.07 31.6ZM16.39 16.39L16.39 14.07L14.07 14.07L14.07 16.39L16.39 16.39Z" fill="#FFFFFF" fill-opacity="1.000000" fill-rule="nonzero"/>
	<path id="Vector" d="" fill="#707070" fill-opacity="0" fill-rule="evenodd"/>
</svg>
