<svg width="47.000000" height="48.000000" viewBox="0 0 47 48" fill="none" xmlns="http://www.w3.org/2000/svg" xmlns:xlink="http://www.w3.org/1999/xlink">
	<desc>
			Created with Pixso.
	</desc>
	<defs/>
	<rect id="Rectangle 22" rx="13.000000" width="47.000000" height="48.000000" fill="#006380" fill-opacity="1.000000"/>
	<rect id="Rectangle 22" x="0.500000" y="0.500000" rx="13.000000" width="46.000000" height="47.000000" stroke="#707070" stroke-opacity="0" stroke-width="1.000000"/>
	<path id="Vector" d="M16.5 26.12C16.2 26.12 15.91 26.21 15.66 26.37C15.42 26.54 15.22 26.77 15.11 27.05C15 27.32 14.97 27.62 15.02 27.91C15.08 28.2 15.22 28.47 15.43 28.68C15.64 28.89 15.91 29.03 16.2 29.09C16.49 29.15 16.79 29.12 17.07 29.01C17.34 28.89 17.58 28.7 17.74 28.45C17.91 28.21 18 27.92 18 27.62C18 27.22 17.84 26.84 17.56 26.56C17.27 26.28 16.89 26.12 16.5 26.12ZM16.5 28.37C16.35 28.37 16.2 28.33 16.08 28.24C15.96 28.16 15.86 28.04 15.8 27.91C15.75 27.77 15.73 27.62 15.76 27.47C15.79 27.33 15.86 27.19 15.96 27.09C16.07 26.98 16.2 26.91 16.35 26.88C16.49 26.86 16.65 26.87 16.78 26.93C16.92 26.98 17.04 27.08 17.12 27.2C17.2 27.33 17.25 27.47 17.25 27.62C17.25 27.82 17.17 28.01 17.03 28.15C16.88 28.29 16.69 28.37 16.5 28.37Z" fill="#FFFFFF" fill-opacity="1.000000" fill-rule="nonzero"/>
	<path id="Vector" d="" fill="#707070" fill-opacity="0" fill-rule="evenodd"/>
	<path id="Vector" d="M31.5 26.12C31.2 26.12 30.91 26.21 30.66 26.37C30.42 26.54 30.22 26.77 30.11 27.05C30 27.32 29.97 27.62 30.02 27.91C30.08 28.2 30.22 28.47 30.43 28.68C30.64 28.89 30.91 29.03 31.2 29.09C31.49 29.15 31.79 29.12 32.07 29.01C32.34 28.89 32.58 28.7 32.74 28.45C32.91 28.21 33 27.92 33 27.62C33 27.22 32.84 26.84 32.56 26.56C32.27 26.28 31.89 26.12 31.5 26.12ZM31.5 28.37C31.35 28.37 31.2 28.33 31.08 28.24C30.96 28.16 30.86 28.04 30.8 27.91C30.75 27.77 30.73 27.62 30.76 27.47C30.79 27.33 30.86 27.19 30.96 27.09C31.07 26.98 31.2 26.91 31.35 26.88C31.49 26.86 31.65 26.87 31.78 26.93C31.92 26.98 32.04 27.08 32.12 27.2C32.2 27.33 32.25 27.47 32.25 27.62C32.25 27.82 32.17 28.01 32.03 28.15C31.88 28.29 31.69 28.37 31.5 28.37Z" fill="#FFFFFF" fill-opacity="1.000000" fill-rule="nonzero"/>
	<path id="Vector" d="" fill="#707070" fill-opacity="0" fill-rule="evenodd"/>
	<path id="Vector" d="M20.62 28L27.37 28L27.37 28.75L20.62 28.75L20.62 28Z" fill="#FFFFFF" fill-opacity="1.000000" fill-rule="nonzero"/>
	<path id="Vector" d="" fill="#707070" fill-opacity="0" fill-rule="evenodd"/>
	<path id="Vector" d="M20.62 26.5L27.37 26.5L27.37 27.25L20.62 27.25L20.62 26.5Z" fill="#FFFFFF" fill-opacity="1.000000" fill-rule="nonzero"/>
	<path id="Vector" d="" fill="#707070" fill-opacity="0" fill-rule="evenodd"/>
	<path id="Vector" d="M22.87 20.87L25.12 20.87L25.12 21.62L22.87 21.62L22.87 20.87Z" fill="#FFFFFF" fill-opacity="1.000000" fill-rule="nonzero"/>
	<path id="Vector" d="" fill="#707070" fill-opacity="0" fill-rule="evenodd"/>
	<path id="Vector" d="M35.25 24.25L35.25 23.5C35.24 23.2 35.13 22.91 34.91 22.7C34.7 22.49 34.42 22.37 34.12 22.37L32.64 22.37L31.86 19.65L31.63 18.72C31.57 18.48 31.42 18.26 31.23 18.11C31.03 17.95 30.79 17.87 30.54 17.87L27.37 17.87L27.37 16.37C27.37 16.17 27.29 15.98 27.15 15.84C27.01 15.7 26.82 15.62 26.62 15.62L21.37 15.62C21.17 15.62 20.98 15.7 20.84 15.84C20.7 15.98 20.62 16.17 20.62 16.37L20.62 17.87L17.45 17.87C17.2 17.87 16.96 17.95 16.76 18.11C16.57 18.26 16.42 18.48 16.36 18.72L16.14 19.64L15.36 22.37L13.87 22.37C13.57 22.37 13.29 22.49 13.08 22.7C12.86 22.91 12.75 23.2 12.75 23.5L12.75 24.25C12.75 24.43 12.79 24.62 12.89 24.79C12.98 24.95 13.11 25.09 13.27 25.19C12.93 25.54 12.75 26.01 12.75 26.5L12.75 31C12.75 31.15 12.78 31.31 12.84 31.45C12.91 31.59 13 31.72 13.12 31.83L13.12 33.25C13.12 33.54 13.24 33.83 13.45 34.04C13.66 34.25 13.95 34.37 14.25 34.37L17.25 34.37C17.54 34.37 17.83 34.25 18.04 34.04C18.25 33.83 18.37 33.54 18.37 33.25L18.37 32.12L29.62 32.12L29.62 33.25C29.62 33.54 29.74 33.83 29.95 34.04C30.16 34.25 30.45 34.37 30.75 34.37L33.75 34.37C34.04 34.37 34.33 34.25 34.54 34.04C34.75 33.83 34.87 33.54 34.87 33.25L34.87 31.83C34.99 31.72 35.08 31.59 35.15 31.45C35.21 31.31 35.24 31.15 35.25 31L35.25 26.5C35.24 26.01 35.06 25.54 34.72 25.19C34.88 25.09 35.01 24.95 35.1 24.79C35.2 24.62 35.24 24.43 35.25 24.25ZM21.37 16.37L26.62 16.37L26.62 17.87L21.37 17.87L21.37 16.37ZM17.09 18.9C17.11 18.82 17.16 18.75 17.22 18.7C17.29 18.65 17.37 18.62 17.45 18.62L30.54 18.62C30.62 18.62 30.7 18.65 30.77 18.7C30.83 18.75 30.88 18.82 30.9 18.9L31.02 19.37L16.98 19.37L17.09 18.9ZM16.78 20.12L31.21 20.12L32.5 24.62L21.71 24.62C21.62 24.1 21.35 23.62 20.95 23.28C20.54 22.93 20.03 22.75 19.5 22.75C18.96 22.75 18.45 22.93 18.04 23.28C17.64 23.62 17.37 24.1 17.28 24.62L15.49 24.62L16.78 20.12ZM20.94 24.62L18.05 24.62C18.13 24.3 18.32 24.01 18.58 23.81C18.84 23.61 19.16 23.49 19.5 23.49C19.83 23.49 20.15 23.61 20.41 23.81C20.67 24.01 20.86 24.3 20.94 24.62ZM13.5 23.5C13.5 23.4 13.53 23.3 13.6 23.23C13.68 23.16 13.77 23.12 13.87 23.12L15.14 23.12L14.71 24.62L13.87 24.62C13.77 24.62 13.68 24.58 13.6 24.51C13.53 24.44 13.5 24.34 13.5 24.25L13.5 23.5ZM17.62 33.25C17.62 33.34 17.58 33.44 17.51 33.51C17.44 33.58 17.34 33.62 17.25 33.62L14.25 33.62C14.15 33.62 14.05 33.58 13.98 33.51C13.91 33.44 13.87 33.34 13.87 33.25L13.87 32.12L17.62 32.12L17.62 33.25ZM34.12 33.25C34.12 33.34 34.08 33.44 34.01 33.51C33.94 33.58 33.84 33.62 33.75 33.62L30.75 33.62C30.65 33.62 30.55 33.58 30.48 33.51C30.41 33.44 30.37 33.34 30.37 33.25L30.37 32.12L34.12 32.12L34.12 33.25ZM34.5 31C34.5 31.09 34.46 31.19 34.39 31.26C34.31 31.33 34.22 31.37 34.12 31.37L13.87 31.37C13.77 31.37 13.68 31.33 13.6 31.26C13.53 31.19 13.5 31.09 13.5 31L13.5 30.62L34.5 30.62L34.5 31ZM34.5 29.87L13.5 29.87L13.5 26.5C13.5 26.2 13.61 25.91 13.83 25.7C14.04 25.49 14.32 25.37 14.62 25.37L33.37 25.37C33.67 25.37 33.95 25.49 34.16 25.7C34.38 25.91 34.49 26.2 34.5 26.5L34.5 29.87ZM34.5 24.25C34.5 24.34 34.46 24.44 34.39 24.51C34.31 24.58 34.22 24.62 34.12 24.62L33.28 24.62L32.85 23.12L34.12 23.12C34.22 23.12 34.31 23.16 34.39 23.23C34.46 23.3 34.5 23.4 34.5 23.5L34.5 24.25Z" fill="#FFFFFF" fill-opacity="1.000000" fill-rule="nonzero"/>
	<path id="Vector" d="" fill="#707070" fill-opacity="0" fill-rule="evenodd"/>
</svg>
