<svg width="47.000000" height="48.000000" viewBox="0 0 47 48" fill="none" xmlns="http://www.w3.org/2000/svg" xmlns:xlink="http://www.w3.org/1999/xlink">
	<desc>
			Created with Pixso.
	</desc>
	<defs/>
	<rect id="Rectangle 21" rx="13.000000" width="47.000000" height="48.000000" fill="#F15A2B" fill-opacity="1.000000"/>
	<rect id="Rectangle 21" x="0.500000" y="0.500000" rx="13.000000" width="46.000000" height="47.000000" stroke="#707070" stroke-opacity="0" stroke-width="1.000000"/>
	<path id="Vector" d="M32.81 31.92C32.36 31.93 31.92 31.8 31.55 31.55C31.27 31.37 30.94 31.28 30.61 31.28C30.27 31.28 29.95 31.37 29.67 31.55C29.29 31.8 28.85 31.92 28.4 31.92C27.95 31.92 27.51 31.8 27.14 31.55C26.86 31.37 26.53 31.27 26.2 31.27C25.86 31.27 25.54 31.37 25.26 31.55C24.88 31.8 24.44 31.92 23.99 31.92C23.54 31.92 23.1 31.8 22.72 31.55C22.45 31.37 22.12 31.28 21.79 31.28C21.45 31.28 21.13 31.37 20.85 31.55C20.51 31.78 20.11 31.91 19.69 31.92L19.67 31.27C19.98 31.26 20.27 31.17 20.52 30.99C20.9 30.75 21.34 30.63 21.79 30.63C22.24 30.63 22.68 30.75 23.05 30.99C23.33 31.18 23.66 31.27 23.99 31.27C24.33 31.27 24.65 31.18 24.93 30.99C25.31 30.75 25.75 30.63 26.2 30.63C26.65 30.63 27.09 30.75 27.47 30.99C27.74 31.18 28.07 31.27 28.4 31.27C28.74 31.27 29.06 31.18 29.34 30.99C29.72 30.75 30.16 30.63 30.61 30.63C31.06 30.63 31.5 30.75 31.88 30.99C32.16 31.18 32.48 31.27 32.82 31.27C33.15 31.27 33.48 31.18 33.76 30.99C34.13 30.75 34.57 30.62 35.02 30.63L35.02 31.28C34.69 31.27 34.36 31.36 34.08 31.55C33.71 31.8 33.26 31.93 32.81 31.92Z" fill="#FFFFFF" fill-opacity="1.000000" fill-rule="nonzero"/>
	<path id="Vector" d="" fill="#707070" fill-opacity="0" fill-rule="evenodd"/>
	<path id="Vector" d="M15.17 31.92C14.72 31.93 14.28 31.8 13.91 31.55C13.63 31.36 13.3 31.27 12.97 31.28L12.97 30.63C13.42 30.62 13.86 30.75 14.24 31C14.51 31.19 14.84 31.28 15.17 31.28C15.51 31.28 15.84 31.19 16.11 31C16.49 30.75 16.93 30.62 17.38 30.63C17.82 30.62 18.25 30.74 18.61 30.98L18.29 31.54C18.02 31.36 17.7 31.27 17.38 31.28C17.04 31.27 16.72 31.36 16.44 31.55C16.07 31.8 15.62 31.93 15.17 31.92Z" fill="#FFFFFF" fill-opacity="1.000000" fill-rule="nonzero"/>
	<path id="Vector" d="" fill="#707070" fill-opacity="0" fill-rule="evenodd"/>
	<path id="Vector" d="M32.81 29.65C32.36 29.66 31.92 29.53 31.55 29.28C31.27 29.1 30.94 29 30.61 29C30.27 29 29.95 29.1 29.67 29.28C29.29 29.53 28.85 29.65 28.4 29.65C27.95 29.65 27.51 29.53 27.13 29.28C26.86 29.1 26.53 29 26.2 29C25.86 29 25.54 29.1 25.26 29.28C24.88 29.53 24.44 29.65 23.99 29.65C23.54 29.65 23.1 29.53 22.72 29.28C22.45 29.1 22.12 29 21.79 29C21.45 29 21.13 29.1 20.85 29.28C20.47 29.53 20.03 29.66 19.58 29.65C19.13 29.66 18.69 29.53 18.32 29.28C18.04 29.09 17.71 29 17.38 29C17.04 29 16.71 29.09 16.44 29.28C16.07 29.53 15.62 29.66 15.18 29.65C14.72 29.66 14.28 29.53 13.91 29.28C13.63 29.09 13.3 29 12.97 29L12.97 28.36C13.42 28.35 13.86 28.48 14.23 28.73C14.51 28.92 14.84 29.01 15.17 29C15.51 29.01 15.84 28.92 16.11 28.73C16.49 28.48 16.93 28.35 17.38 28.36C17.83 28.35 18.27 28.48 18.64 28.73C18.92 28.92 19.25 29.01 19.58 29C19.92 29.01 20.25 28.92 20.52 28.73C20.9 28.48 21.34 28.36 21.79 28.36C22.24 28.36 22.68 28.48 23.05 28.73C23.33 28.91 23.66 29 23.99 29C24.33 29 24.65 28.91 24.93 28.73C25.31 28.48 25.75 28.36 26.2 28.36C26.65 28.36 27.09 28.48 27.46 28.73C27.74 28.91 28.07 29 28.4 29C28.74 29 29.06 28.91 29.34 28.73C29.72 28.48 30.16 28.36 30.61 28.36C31.06 28.36 31.5 28.48 31.88 28.73C32.15 28.91 32.48 29 32.81 29C33.15 29 33.47 28.91 33.75 28.73C34.13 28.48 34.57 28.35 35.02 28.36L35.02 29C34.69 29 34.36 29.09 34.08 29.28C33.71 29.53 33.26 29.66 32.81 29.65Z" fill="#FFFFFF" fill-opacity="1.000000" fill-rule="nonzero"/>
	<path id="Vector" d="" fill="#707070" fill-opacity="0" fill-rule="evenodd"/>
	<path id="Vector" d="M32.81 27.38C32.36 27.39 31.92 27.26 31.55 27.01C31.27 26.82 30.94 26.73 30.61 26.73C30.36 26.73 30.12 26.78 29.9 26.89L29.61 26.3C29.92 26.15 30.26 26.08 30.61 26.09C31.06 26.08 31.5 26.21 31.88 26.46C32.16 26.64 32.48 26.74 32.82 26.74C33.15 26.74 33.48 26.64 33.76 26.46C34.13 26.21 34.57 26.08 35.02 26.09L35.02 26.73C34.69 26.73 34.36 26.82 34.08 27.01C33.71 27.26 33.26 27.39 32.81 27.38Z" fill="#FFFFFF" fill-opacity="1.000000" fill-rule="nonzero"/>
	<path id="Vector" d="" fill="#707070" fill-opacity="0" fill-rule="evenodd"/>
	<path id="Vector" d="M28.4 27.38C27.95 27.39 27.51 27.26 27.13 27.01C26.86 26.83 26.53 26.73 26.2 26.73C25.86 26.73 25.54 26.83 25.26 27.01C24.88 27.26 24.44 27.38 23.99 27.38C23.54 27.38 23.1 27.26 22.72 27.01C22.44 26.83 22.12 26.74 21.79 26.74C21.45 26.74 21.13 26.83 20.85 27.01C20.47 27.26 20.03 27.39 19.58 27.38C19.13 27.39 18.69 27.26 18.31 27.01C18.04 26.82 17.71 26.73 17.38 26.73C17.04 26.73 16.71 26.82 16.44 27.01C16.07 27.26 15.62 27.39 15.17 27.38C14.72 27.39 14.28 27.26 13.91 27.01C13.63 26.82 13.3 26.73 12.97 26.73L12.97 26.09C13.42 26.08 13.86 26.21 14.24 26.46C14.51 26.65 14.84 26.74 15.17 26.73C15.51 26.74 15.84 26.65 16.11 26.45C16.49 26.21 16.93 26.08 17.38 26.09C17.83 26.08 18.27 26.21 18.64 26.46C18.92 26.65 19.25 26.74 19.58 26.73C19.92 26.74 20.25 26.65 20.52 26.46C20.9 26.21 21.34 26.09 21.79 26.09C22.24 26.09 22.68 26.21 23.05 26.46C23.33 26.64 23.66 26.73 23.99 26.73C24.33 26.73 24.65 26.64 24.93 26.46C25.31 26.21 25.75 26.09 26.2 26.09C26.65 26.09 27.09 26.21 27.47 26.46C27.75 26.65 28.09 26.74 28.43 26.73L28.6 27.37C28.53 27.38 28.46 27.38 28.4 27.38Z" fill="#FFFFFF" fill-opacity="1.000000" fill-rule="nonzero"/>
	<path id="Vector" d="" fill="#707070" fill-opacity="0" fill-rule="evenodd"/>
	<path id="Vector" d="M32.81 25.11C32.36 25.12 31.92 24.99 31.55 24.74C31.27 24.56 30.94 24.46 30.61 24.46C30.27 24.46 29.95 24.56 29.67 24.74C29.29 24.98 28.85 25.11 28.4 25.11C27.95 25.11 27.51 24.98 27.13 24.74C26.86 24.56 26.53 24.46 26.2 24.46C25.86 24.46 25.54 24.56 25.26 24.74C24.88 24.98 24.44 25.11 23.99 25.11C23.54 25.11 23.1 24.98 22.72 24.74C22.45 24.56 22.12 24.46 21.79 24.46C21.45 24.46 21.13 24.56 20.85 24.74C20.47 24.99 20.03 25.12 19.58 25.11C19.13 25.12 18.69 24.99 18.32 24.74C18.04 24.55 17.71 24.45 17.38 24.46C17.04 24.45 16.71 24.55 16.44 24.74C16.07 24.99 15.62 25.12 15.18 25.11C14.72 25.12 14.28 24.99 13.91 24.74C13.63 24.55 13.3 24.45 12.97 24.46L12.97 23.82C13.42 23.81 13.86 23.93 14.23 24.18C14.51 24.37 14.84 24.47 15.17 24.46C15.51 24.47 15.84 24.37 16.11 24.18C16.49 23.93 16.93 23.81 17.38 23.82C17.83 23.81 18.27 23.93 18.64 24.18C18.92 24.37 19.25 24.47 19.58 24.46C19.92 24.47 20.25 24.37 20.52 24.18C20.9 23.94 21.34 23.82 21.79 23.82C22.24 23.82 22.68 23.94 23.05 24.18C23.33 24.37 23.66 24.46 23.99 24.46C24.33 24.46 24.65 24.37 24.93 24.18C25.31 23.94 25.75 23.82 26.2 23.82C26.65 23.82 27.09 23.94 27.46 24.18C27.74 24.37 28.07 24.46 28.4 24.46C28.74 24.46 29.06 24.37 29.34 24.18C29.72 23.94 30.16 23.82 30.61 23.82C31.06 23.82 31.5 23.94 31.88 24.18C32.15 24.37 32.48 24.46 32.81 24.46C33.15 24.46 33.47 24.37 33.75 24.18C34.13 23.93 34.57 23.81 35.02 23.82L35.02 24.46C34.69 24.45 34.36 24.55 34.08 24.74C33.71 24.99 33.26 25.12 32.81 25.11Z" fill="#FFFFFF" fill-opacity="1.000000" fill-rule="nonzero"/>
	<path id="Vector" d="" fill="#707070" fill-opacity="0" fill-rule="evenodd"/>
	<path id="Vector" d="M28.19 24.84L27.58 24.62C27.74 24.17 27.8 23.69 27.77 23.21C27.74 22.73 27.61 22.27 27.39 21.84L25.16 17.48C25.14 17.43 25.13 17.39 25.13 17.34C25.13 17.29 25.14 17.24 25.16 17.2C25.17 17.15 25.2 17.11 25.24 17.08C25.28 17.05 25.32 17.03 25.37 17.02L29.81 15.83C29.95 15.79 30.08 15.7 30.15 15.57C30.23 15.44 30.25 15.29 30.21 15.14C30.18 15 30.09 14.87 29.96 14.8C29.83 14.72 29.68 14.7 29.53 14.73L24.16 16.02C24.04 16.04 23.94 16.1 23.84 16.17C23.75 16.25 23.68 16.34 23.63 16.45C23.58 16.56 23.56 16.67 23.57 16.79C23.57 16.91 23.6 17.03 23.66 17.13L25.25 20.09C25.29 20.17 25.3 20.26 25.28 20.34C25.25 20.42 25.2 20.49 25.12 20.53L23.06 21.67L22.75 21.1L24.53 20.12L23.09 17.44C22.98 17.25 22.93 17.03 22.92 16.82C22.91 16.6 22.95 16.38 23.04 16.18C23.13 15.99 23.26 15.81 23.43 15.67C23.6 15.53 23.8 15.44 24.01 15.38L29.38 14.1C29.69 14.02 30.02 14.07 30.3 14.24C30.58 14.4 30.78 14.67 30.86 14.98C30.93 15.29 30.89 15.63 30.72 15.9C30.56 16.18 30.29 16.38 29.97 16.46L25.92 17.54L27.97 21.54C28.23 22.05 28.38 22.6 28.42 23.17C28.46 23.73 28.38 24.3 28.19 24.84Z" fill="#FFFFFF" fill-opacity="1.000000" fill-rule="nonzero"/>
	<path id="Vector" d="" fill="#707070" fill-opacity="0" fill-rule="evenodd"/>
	<path id="Vector" d="M17.68 23.9L21.62 21.73L21.93 22.3L17.99 24.47L17.68 23.9Z" fill="#FFFFFF" fill-opacity="1.000000" fill-rule="nonzero"/>
	<path id="Vector" d="" fill="#707070" fill-opacity="0" fill-rule="evenodd"/>
	<path id="Vector" d="M31.13 22.68C30.65 22.68 30.18 22.54 29.78 22.27C29.38 22 29.07 21.62 28.88 21.18C28.7 20.73 28.65 20.25 28.74 19.77C28.84 19.3 29.07 18.87 29.41 18.53C29.75 18.19 30.18 17.96 30.66 17.86C31.13 17.77 31.62 17.82 32.06 18C32.51 18.18 32.89 18.5 33.15 18.9C33.42 19.3 33.56 19.77 33.56 20.25C33.56 20.89 33.31 21.51 32.85 21.97C32.39 22.42 31.78 22.68 31.13 22.68ZM31.13 18.46C30.78 18.46 30.43 18.57 30.14 18.76C29.85 18.96 29.62 19.24 29.48 19.57C29.35 19.89 29.31 20.25 29.38 20.6C29.45 20.94 29.62 21.26 29.87 21.51C30.12 21.76 30.44 21.93 30.78 22C31.13 22.07 31.49 22.03 31.81 21.9C32.14 21.76 32.42 21.53 32.61 21.24C32.81 20.95 32.91 20.6 32.91 20.25C32.91 19.77 32.73 19.32 32.39 18.99C32.06 18.65 31.6 18.46 31.13 18.46Z" fill="#FFFFFF" fill-opacity="1.000000" fill-rule="nonzero"/>
	<path id="Vector" d="" fill="#707070" fill-opacity="0" fill-rule="evenodd"/>
</svg>
