<svg width="70.000000" height="70.000000" viewBox="0 0 70 70" fill="none" xmlns="http://www.w3.org/2000/svg" xmlns:xlink="http://www.w3.org/1999/xlink">
	<desc>
			Created with Pixso.
	</desc>
	<defs>
		<linearGradient id="paint_linear_1_127_0" x1="49.646744" y1="1.963924" x2="0.000004" y2="70.000000" gradientUnits="userSpaceOnUse">
			<stop stop-color="#747DEF"/>
			<stop offset="1.000000" stop-color="#5E3BE1"/>
		</linearGradient>
		<linearGradient id="paint_linear_1_131_0" x1="32.407906" y1="34.544136" x2="25.263798" y2="40.955322" gradientUnits="userSpaceOnUse">
			<stop stop-color="#747DEF"/>
			<stop offset="1.000000" stop-color="#5E3BE1"/>
		</linearGradient>
		<linearGradient id="paint_linear_1_132_0" x1="32.902771" y1="35.401707" x2="25.263615" y2="40.955444" gradientUnits="userSpaceOnUse">
			<stop stop-color="#747DEF"/>
			<stop offset="1.000000" stop-color="#5E3BE1"/>
		</linearGradient>
	</defs>
	<circle id="Ellipse 31" cx="35.000000" cy="35.000000" r="35.000000" fill="url(#paint_linear_1_127_0)" fill-opacity="1.000000"/>
	<circle id="Ellipse 31" cx="35.000000" cy="35.000000" r="34.500000" stroke="#707070" stroke-opacity="0" stroke-width="1.000000"/>
	<path id="Vector" d="M52.61 23.99C53.3 25.18 53.2 26.61 52.36 27.71L33.89 51.81C33.13 52.81 31.87 53.31 30.59 53.07C29.33 52.83 28.34 51.91 27.99 50.68L25.26 40.95L24.97 39.94L24.24 39.19L17.18 31.95C16.29 31.04 15.99 29.72 16.41 28.51C16.83 27.32 17.87 26.45 19.15 26.28L49.26 22.34C50.63 22.16 51.91 22.79 52.61 23.99Z" fill="#FFFFFF" fill-opacity="1.000000" fill-rule="nonzero"/>
	<path id="Vector" d="" fill="#707070" fill-opacity="0" fill-rule="evenodd"/>
	<path id="Vector" d="M25.26 40.95L27.99 50.68C28.34 51.91 29.33 52.83 30.59 53.07C31.87 53.31 33.13 52.81 33.89 51.81L52.36 27.71C53.2 26.61 53.3 25.18 52.61 23.99L24.97 39.94L25.26 40.95Z" fill="#FFFFFF" fill-opacity="1.000000" fill-rule="nonzero"/>
	<path id="Vector" d="" fill="#707070" fill-opacity="0" fill-rule="evenodd"/>
	<path id="Vector" d="M36.22 33.45C36.5 33.93 36.33 34.56 35.85 34.84L25.26 40.95L24.97 39.94L24.24 39.19L34.83 33.07C35.31 32.79 35.94 32.96 36.22 33.45Z" fill="url(#paint_linear_1_131_0)" fill-opacity="1.000000" fill-rule="nonzero"/>
	<path id="Vector" d="" fill="#707070" fill-opacity="0" fill-rule="evenodd"/>
	<path id="Vector" d="M25.26 40.95L35.85 34.84C36.33 34.56 36.5 33.93 36.22 33.45L24.97 39.94L25.26 40.95Z" fill="url(#paint_linear_1_132_0)" fill-opacity="1.000000" fill-rule="nonzero"/>
	<path id="Vector" d="" fill="#707070" fill-opacity="0" fill-rule="evenodd"/>
</svg>
